<svg xmlns="http://www.w3.org/2000/svg" viewBox="0 0 162.9 162.9">
  <defs>
    <style>
      .cls-1 {
        fill: #a0b2dc;
      }

      .cls-2 {
        fill: #fff;
      }

      .cls-3 {
        fill: #605e5f;
      }

      .cls-4 {
        fill: #f3ac2a;
      }
    </style>
  </defs>
  <g id="Layer_2" data-name="Layer 2">
    <g id="Layer_2-2" data-name="Layer 2">
      <g>
        <path class="cls-1" d="M160.8,100a81.4,81.4,0,0,0,2.1-18.5V80l-14,8.1Z"/>
        <path class="cls-1" d="M135.7,74.9l24.6-14.2a82.6,82.6,0,0,0-14.7-29.5l-34,19.6Z"/>
        <path class="cls-1" d="M34.3,147.9a81.5,81.5,0,0,0,90.2,2.7L90,116.2Z"/>
        <path class="cls-1" d="M99.1,111l33.7,33.7a82.2,82.2,0,0,0,24.7-33.9l-21.1-21Z"/>
        <polygon class="cls-1" points="65.5 77.4 91.7 103.7 129.1 82.4 102.6 56 65.5 77.4"/>
        <path class="cls-1" d="M56.5,82.6,5.9,111.8A81.6,81.6,0,0,0,26,141.1l56.7-32.3Z"/>
        <path class="cls-1" d="M132.5,18a80.8,80.8,0,0,0-51-18A77.9,77.9,0,0,0,67.7,1.2L102,35.6Z"/>
        <path class="cls-1" d="M10.2,42A80.9,80.9,0,0,0,0,81.5,84.2,84.2,0,0,0,.9,93.9L39.7,71.5Z"/>
        <path class="cls-1" d="M85.9,44.9,48.1,7.1a83.2,83.2,0,0,0-27.3,20L55.9,62.2Z"/>
        <path class="cls-2" d="M43.3,69.4l-31-31L10.2,42,39.7,71.5Z"/>
        <path class="cls-2" d="M52.3,64.3l3.6-2.1L20.8,27.1a38.8,38.8,0,0,0-2.6,3.1Z"/>
        <path class="cls-2" d="M89.5,42.8,52.1,5.5l-4,1.6L85.9,44.9Z"/>
        <path class="cls-2" d="M98.4,37.6l3.6-2L67.7,1.2,63,2.1Z"/>
        <polygon class="cls-2" points="88.9 47.9 85.9 44.9 55.9 62.2 58.7 65 88.9 47.9"/>
        <path class="cls-2" d="M108.8,48l2.8,2.8,34-19.6-2.3-2.8Z"/>
        <polygon class="cls-2" points="99.8 53.1 62.4 74.4 65.5 77.4 102.6 56 99.8 53.1"/>
        <path class="cls-2" d="M105.1,38.6l31-17.6-3.6-3L102,35.6Z"/>
        <path class="cls-2" d="M53.4,79.5l-49.1,28c.5,1.5,1,2.9,1.6,4.3L56.5,82.6Z"/>
        <path class="cls-2" d="M42.5,74.3l-2.8-2.8L.9,93.9c.2,1.2.5,2.4.7,3.6Z"/>
        <polygon class="cls-2" points="58.7 65 55.9 62.2 52.3 64.3 55.1 67.1 58.7 65"/>
        <polygon class="cls-2" points="43.3 69.4 39.7 71.5 42.5 74.3 46.1 72.2 43.3 69.4"/>
        <polygon class="cls-2" points="105.1 38.6 102 35.5 98.4 37.6 101.5 40.7 105.1 38.6"/>
        <polygon class="cls-2" points="92.5 45.8 89.5 42.8 85.9 44.9 88.9 47.9 92.5 45.8"/>
        <path class="cls-2" d="M145.4,84.6l3.5,3.5,14-8.1a45.3,45.3,0,0,0-.3-5.2Z"/>
        <path class="cls-2" d="M138.1,77.3l23-13.1c-.3-1.2-.5-2.3-.8-3.5L135.7,74.9Z"/>
        <polygon class="cls-3" points="58.7 65 55.1 67.1 58.5 70.5 61.3 67.6 58.7 65"/>
        <polygon class="cls-3" points="51.4 77.5 46.1 72.2 42.5 74.3 48.6 80.4 51.4 77.5"/>
        <polygon class="cls-3" points="62.4 74.4 53.4 79.5 56.5 82.6 65.5 77.4 62.4 74.4"/>
        <polygon class="cls-3" points="55.1 67.1 52.3 64.3 43.3 69.4 46.1 72.2 55.1 67.1"/>
        <polygon class="cls-3" points="58.5 70.5 51.4 77.5 53.4 79.5 62.4 74.4 58.5 70.5"/>
        <polygon class="cls-3" points="46.1 72.2 51.4 77.5 58.5 70.5 55.1 67.1 46.1 72.2"/>
        <g>
          <path class="cls-3" d="M145.4,84.6l17.2-9.8a93.2,93.2,0,0,0-1.5-10.6l-23,13.1-2.4-2.4L111.6,50.8,108.8,48l34.5-19.6a100.9,100.9,0,0,0-7.2-7.4l-31,17.6-3.6,2.1-3.1-3.1L63,2.1A76.8,76.8,0,0,0,52.1,5.5L89.5,42.8l3,3-3.6,2.1L58.7,65l2.6,2.6-2.8,2.9,3.9,3.9L99.8,53.1l2.8,2.9,26.5,26.4L91.7,103.7,65.5,77.4l-9,5.2,26.2,26.2L26,141.1a91,91,0,0,0,8.3,6.8L90,116.2l34.5,34.4a78.3,78.3,0,0,0,8.3-5.9L99.1,111l37.3-21.2,21.1,21a96.5,96.5,0,0,0,3.3-10.8L148.9,88.1Z"/>
          <path class="cls-3" d="M51.4,77.5l-2.8,2.9-6.1-6.1L1.6,97.5a81.7,81.7,0,0,0,2.7,10l49.1-28Z"/>
          <path class="cls-3" d="M52.3,64.3,18.2,30.2a81.3,81.3,0,0,0-5.9,8.2l31,31Z"/>
        </g>
        <g>
          <circle class="cls-4" cx="52.9" cy="73.1" r="11.5"/>
          <path class="cls-2" d="M49,65.3h8.8a2,2,0,0,1,1.2.8,2.2,2.2,0,0,1,.6,1.4V77.9h0l-.2.4a.9.9,0,0,1-.6.4h-.2v1.2a1.3,1.3,0,0,1-.6.7h-.6l-.5-.2a1.1,1.1,0,0,1-.4-.9v-.9H49.2a2.7,2.7,0,0,1,0,.9v.3c-.1.3-.2.6-.6.7a.9.9,0,0,1-.7,0,.7.7,0,0,1-.6-.4,1.3,1.3,0,0,1-.1-.6v-.9H47a.8.8,0,0,1-.7-.5,1.4,1.4,0,0,1-.2-.6V68.2c0-.2.1-.4.1-.6a2.1,2.1,0,0,1,.7-1.4,3,3,0,0,1,1.7-.8Zm3.9,8.3h4.6a1,1,0,0,0,.9-.4,1.4,1.4,0,0,0,.2-.7V69.2a1.1,1.1,0,0,0-.6-.7H48.2a1,1,0,0,0-.9.6.7.7,0,0,0-.1.5v3.3a1.2,1.2,0,0,0,.5.7h5.2Zm0-6.7H49.5c-.2,0-.3.1-.2.3s.1.2.3.2h6.7c.1,0,.2-.1.2-.3l-.2-.2H52.9Zm-5.7,9.8a1,1,0,1,0,2,0,1,1,0,0,0-2,0Zm10.4-1a1,1,0,0,0-1.1,1,1.1,1.1,0,0,0,1,1.1,1.1,1.1,0,0,0,1.1-1.1A1,1,0,0,0,57.6,75.7Z"/>
        </g>
      </g>
    </g>
  </g>
</svg>
