<svg xmlns="http://www.w3.org/2000/svg" xmlns:xlink="http://www.w3.org/1999/xlink" viewBox="0 0 165.2 166.2">
  <defs>
    <style>
      .cls-1 {
        fill: none;
      }

      .cls-2 {
        clip-path: url(#clip-path);
      }

      .cls-3 {
        fill: #b2d6f1;
      }

      .cls-4 {
        fill: #fccaa8;
      }

      .cls-5 {
        fill: #ae785c;
      }

      .cls-6 {
        fill: #492822;
      }

      .cls-7 {
        fill: #79564d;
      }

      .cls-8 {
        fill: #8d6d65;
      }

      .cls-9 {
        fill: #fbc1a6;
      }

      .cls-10 {
        fill: #f3ac2a;
      }

      .cls-11 {
        fill: #f2754f;
      }

      .cls-12 {
        fill: #a0b2dc;
      }

      .cls-13 {
        fill: #1a626d;
      }

      .cls-14 {
        fill: #f6ebc8;
      }

      .cls-15 {
        fill: #f79d7d;
      }
    </style>
    <clipPath id="clip-path" transform="translate(2.2 3.2)">
      <circle class="cls-1" cx="81.5" cy="81.5" r="81.5"/>
    </clipPath>
  </defs>
  <g id="Layer_2" data-name="Layer 2">
    <g id="Layer_2-2" data-name="Layer 2">
      <g class="cls-2">
        <circle class="cls-3" cx="83.7" cy="84.7" r="81.5"/>
        <g>
          <path class="cls-4" d="M23.5,41.5,14.3,62.7c5,1.6,10.3,3.4,15.8,5.4C37.4,71,44.2,74,50.4,76.9L65.7,89.4l21-25L74.8,56.7,61.7,58.3l-6.4-.9a192.7,192.7,0,0,1-20.2-9.2C31,46,27.1,43.7,23.5,41.5Z" transform="translate(2.2 3.2)"/>
          <path class="cls-5" d="M27.1,115.1l24.3-11.7,3.1-2.5L68,83.5l24.9,21.9L83,112.2l-5,2.9a42.3,42.3,0,0,1-12.2,4.3l-3.4.5a75.2,75.2,0,0,0-12.2,5.3,82.1,82.1,0,0,0-9.7,6.1l-4.9,2.6Z" transform="translate(2.2 3.2)"/>
          <path class="cls-6" d="M113.2,122.7l-9.7-8.3-2.8-1.7-16.8-5.4-7.1-5.7L64.3,87.7,80.4,71.9l15.3,6.7,10.6,7.2.9,1L112.3,99l12.4,12.4Z" transform="translate(2.2 3.2)"/>
          <path class="cls-7" d="M61.8,26.4c.9.9,3.7,12.5,3.7,12.5l2.6,24v4.7l-1.2,4a69.8,69.8,0,0,0-3.5,9.1,56.6,56.6,0,0,0-2.2,10.7l-.5,5.4V99a2.8,2.8,0,0,0,2.6,2.2,2.9,2.9,0,0,0,3-2.2l1.2-12.1c.3-.4.6-1.2,1.1-2s1.1-1.4,1.3-1.4,1.5,1.7,1.6,1.8l1,3.8,2,3.9,1.4,6.3,1.7,12.4c1.1,3.2,3.4,4.8,4.6,4.3s1.6-2.1,1.4-4.2c-1.1-6.3-2.3-12.6-3.5-18.9a.5.5,0,0,1,.4-.2c.2.1.1.9,0,1s.7,4.8,3.4,16.3l.5,4.1a2.8,2.8,0,0,0,2.9,2.8,2.8,2.8,0,0,0,2.5-2.9c-.3-3-.7-6-1-9.1S88.1,97,87.7,93l2.1,2.9L93.2,99l.5.7.8,1.2,1.8,7.1a2.7,2.7,0,0,0,2.6,1.8,2.8,2.8,0,0,0,2.5-2.2l-.5-3.5-1.8-6.6-.9-1.8a20.7,20.7,0,0,0-2-2.7,15.6,15.6,0,0,0-2.8-2.9l-2.5-3.2h1l4.8,5.6,4.5,5.3,1.9,2.2a1.8,1.8,0,0,0,2.2.2,1.8,1.8,0,0,0,.6-1.7l-5.4-8.6-3.6-5c-.1-.7-.3-1.5-.5-2.3A55.2,55.2,0,0,0,87.3,64L86,54.6s-2.5-19.7-2.5-20.1-.2-15.4-.2-15.4Z" transform="translate(2.2 3.2)"/>
          <path class="cls-8" d="M60.9,95.3h1.5a2.9,2.9,0,0,0,.2.9,7.7,7.7,0,0,1,0,3.4.8.8,0,0,1-.9.4l-.5-.2-.3-.4c-.4-.6-.3-1.2-.2-2.2S60.8,96.1,60.9,95.3Z" transform="translate(2.2 3.2)"/>
          <path class="cls-9" d="M97.8,46.8l-2.2,2.7-7.7,8.3a30.4,30.4,0,0,1-7.4,3.6c-2.8,1-4.3,1-6.2,2.5A26.5,26.5,0,0,0,71,68a24.5,24.5,0,0,0-3,4.3,22.2,22.2,0,0,0-2.8,7.5,2.7,2.7,0,0,0,.7,1.4c.9.7,2.5.6,3.9-.6s.2-.2.2-.3l2.5-5.1a.5.5,0,0,1,.2-.4l3.4-4.2-1.5,6.2-.2.4-4.8,6.2h-.1L62.5,94c-1,2-.6,3.9.3,4.2a2.5,2.5,0,0,0,2.5-.9l7.8-9.1h0L78,83.5l.3.2-.7,1.1L73.2,91l-6.7,10.6a2.1,2.1,0,0,0,.1,2.3,2.4,2.4,0,0,0,2.7.9l3.7-4.5c2.4-3,4.8-6,7.1-9.1.1,0,.1,0,.1-.1l2.2-3.4h.3l-.2.9-2.9,7.5-3.8,9.6a2.3,2.3,0,0,0,.8,2.6,2.3,2.3,0,0,0,2.8-.2l1.8-2.7c1.2-2.5,2.3-4.9,3.5-7.3l4.9-10.3h.3L88,103.9a1.5,1.5,0,0,0,1,1.6,1.4,1.4,0,0,0,1.8-1l5.6-21s3.2-11.8,3.3-12.3,8.7-11.3,8.7-11.3Z" transform="translate(2.2 3.2)"/>
          <path class="cls-10" d="M55.2,1c1.3,5.4,2.1,9.6,2.6,12.6s1.4,5.8,1.4,8.7-.3,4.5,1.1,6a5.6,5.6,0,0,0,3.1,1.4c3.2.7,6.7.5,13.5-1.3L83,26.6c.4-3.3.8-6.9,1-10.8a100.9,100.9,0,0,0-1-19Z" transform="translate(2.2 3.2)"/>
          <path class="cls-11" d="M122.3,8.2,96,48.5a18.8,18.8,0,0,0,1.4,3.4,20.3,20.3,0,0,0,10.8,9.5c12.1-13.1,24.1-26.3,36.2-39.5Z" transform="translate(2.2 3.2)"/>
          <path class="cls-12" d="M135.9,146.4a176.3,176.3,0,0,1-21.5-19.3c-2-2-3.8-4.1-5.6-6.1a23.3,23.3,0,0,1,6.9-8.5,22.8,22.8,0,0,1,6.7-3.5l6.6,4.2,6.6,4.2,16.2,10.3Z" transform="translate(2.2 3.2)"/>
          <path class="cls-13" d="M7.3,30c2.4,1.1,22.5,14.9,22.5,14.9a36.5,36.5,0,0,1-4.9,12.4A38.2,38.2,0,0,1,18.5,65L-2.2,56.5Z" transform="translate(2.2 3.2)"/>
          <path class="cls-14" d="M9.3,122.5l20.5-10.3c1.9,1.2,8,5.3,10.3,13.1a21.9,21.9,0,0,1,.7,7.3L24.7,144Z" transform="translate(2.2 3.2)"/>
          <ellipse class="cls-8" cx="81.4" cy="113.2" rx="1.9" ry="2.5" transform="translate(-4.6 8.5) rotate(-3.6)"/>
          <ellipse class="cls-8" cx="87.4" cy="113.9" rx="1.7" ry="2.2" transform="translate(-4.7 8.9) rotate(-3.6)"/>
          <ellipse class="cls-8" cx="99" cy="107.2" rx="1.7" ry="2.2" transform="translate(-4.2 9.6) rotate(-3.6)"/>
          <ellipse class="cls-8" cx="104.6" cy="98.3" rx="1.1" ry="1.4" transform="translate(-24.8 44.2) rotate(-19.7)"/>
          <path class="cls-15" d="M66.2,77a7.8,7.8,0,0,0-.8,1.8,5.7,5.7,0,0,0-.1,1.2.6.6,0,0,0,.2.7.9.9,0,0,0,.7.1l.7-.2a2,2,0,0,0,.8-1.2V77.7Z" transform="translate(2.2 3.2)"/>
          <ellipse class="cls-15" cx="64" cy="96.3" rx="1.7" ry="1.4" transform="translate(-48.3 83.6) rotate(-48.5)"/>
          <ellipse class="cls-15" cx="68.4" cy="102.7" rx="1.7" ry="1.4" transform="translate(-51.6 89) rotate(-48.5)"/>
          <ellipse class="cls-15" cx="78.1" cy="106.3" rx="1.9" ry="1.5" transform="matrix(0.34, -0.94, 0.94, 0.34, -46.29, 146.41)"/>
          <ellipse class="cls-15" cx="89.7" cy="103.9" rx="1.2" ry="0.9" transform="translate(-36.5 155.7) rotate(-69.9)"/>
        </g>
      </g>
    </g>
  </g>
</svg>
