<svg xmlns="http://www.w3.org/2000/svg" xmlns:xlink="http://www.w3.org/1999/xlink" viewBox="0 0 164.2 165.9">
  <defs>
    <style>
      .cls-1 {
        fill: none;
      }

      .cls-2 {
        clip-path: url(#clip-path);
      }

      .cls-3 {
        fill: #b2d6f1;
      }

      .cls-4 {
        fill: #f7941d;
      }

      .cls-5 {
        fill: #726658;
      }

      .cls-6 {
        fill: #0b6c95;
      }

      .cls-7 {
        fill: #27aae1;
      }

      .cls-8 {
        fill: #fff;
      }
    </style>
    <clipPath id="clip-path" transform="translate(0.9)">
      <circle class="cls-1" cx="80.4" cy="80.4" r="80.4"/>
    </clipPath>
  </defs>
  <g id="Layer_2" data-name="Layer 2">
    <g id="Layer_2-2" data-name="Layer 2">
      <g class="cls-2">
        <circle class="cls-3" cx="81.3" cy="80.4" r="80.4"/>
        <circle class="cls-4" cx="86.5" cy="49.4" r="20.1"/>
        <path class="cls-5" d="M-.9,71l4.6-3.2A35.7,35.7,0,0,1,8.1,70a35,35,0,0,1,10.7,8.6h0a1.3,1.3,0,0,0,1.9.1A149,149,0,0,1,57.8,52.6l1.6-.8a5.4,5.4,0,0,1,3.3-.4h.5c12.2,3,17.3,10,33.1,19l1.3.8a1.4,1.4,0,0,0,1.1,0l2-.8c10.8-4.2,14.6-7.1,22.3-8.6l1.8-.4h.7l1.8.7a101.5,101.5,0,0,1,33.2,20.9,1.8,1.8,0,0,1,.4,1c.8,25.8,1.5,51.6,2.3,77.4a1.3,1.3,0,0,1-1.3,1.3H3.4a1.3,1.3,0,0,1-1.3-1.2Z" transform="translate(0.9)"/>
        <path class="cls-6" d="M1,101.1a148.6,148.6,0,0,0,26.5,5.1,148.1,148.1,0,0,0,24.5.6,153.2,153.2,0,0,0,34.8-6.7,157,157,0,0,0,35.7-16.2,85.7,85.7,0,0,0,11.8,10.9,82.3,82.3,0,0,0,22.6,12l2.1,56.1H4.3Z" transform="translate(0.9)"/>
        <path class="cls-7" d="M10.1,119.1a119.7,119.7,0,0,0,23-9.6,121.6,121.6,0,0,0,18-12.1,194.5,194.5,0,0,0,28.1,24.4,190.8,190.8,0,0,0,47.1,24.7c.8,5.2,1.6,14.2,2.4,19.4l-118.6-3Z" transform="translate(0.9)"/>
        <path class="cls-8" d="M15.4,36.9c.2-1.1,2.7-1,3.4-2.8s-.6-2,0-3,3.5,0,5.7-1.8.8-1.5,1.8-2.1,4.7,0,5.4.3,2.4,1.9,3.7,1.8,1.6-1.7,3.3-2.1a4,4,0,0,1,4.2,2.1c.5,1.2-.5,2.1,0,2.7s4.1-1.2,5.7,0a3.6,3.6,0,0,1,0,4.9c-1.5,1.1-4-1.2-5.4,0s.2,2.9-.9,3.9-5.7-.5-7.7-1.4-2.2-1.5-3.4-1.8c-3.7-.8-5.4,3.3-9.7,3.2S15.2,38.1,15.4,36.9Z" transform="translate(0.9)"/>
        <path class="cls-8" d="M126.6,39.9c-1.1,1.1-2,.7-4.7,1.7s-4.4,1.5-4.7,2.9,2.1,4,4.7,5c4.2,1.4,6.6-1.7,9.7-.1s2.5,6,4.8,6.5,6.1-7.3,9.4-6.5c1.7.4,1.5,2.7,3.9,3.6a5.6,5.6,0,0,0,6.6-2,5.4,5.4,0,0,0,0-5.1c-1.4-2.8-4.2-2.3-5.4-5.1s.2-3.5-.9-4.2-2.3.6-4.2,0-2.4-2.7-3.7-2.6-1,1.4-2.1,2.3c-3,2.4-9.2-2.8-11.7-.6S128.2,38.4,126.6,39.9Z" transform="translate(0.9)"/>
      </g>
    </g>
  </g>
</svg>
