<svg xmlns="http://www.w3.org/2000/svg" viewBox="0 0 161.4 161.5">
  <defs>
    <style>
      .cls-1 {
        fill: #b2d6f1;
      }

      .cls-2 {
        opacity: 0.81;
      }

      .cls-3 {
        fill: #e3c94a;
      }

      .cls-3, .cls-4 {
        stroke: #a0a156;
        stroke-width: 5px;
      }

      .cls-3, .cls-4, .cls-6 {
        stroke-miterlimit: 10;
      }

      .cls-4, .cls-5, .cls-6 {
        fill: none;
      }

      .cls-4 {
        stroke-linecap: round;
      }

      .cls-6 {
        stroke: #1a636d;
        stroke-width: 10px;
      }

      .cls-7 {
        fill: #1a636d;
      }
    </style>
  </defs>
  <g id="Layer_2" data-name="Layer 2">
    <g id="Layer_2-2" data-name="Layer 2">
      <g>
        <g>
          <circle class="cls-1" cx="80.7" cy="80.8" r="80.7"/>
          <g class="cls-2">
            <g>
              <path class="cls-3" d="M63.9,97.9l-.3.4a15.8,15.8,0,0,1-3.3,2.6,16.6,16.6,0,0,1-7.2,2.4,30.7,30.7,0,0,1-19.8-6.9s-9-7.9-11.5-23.4a5.1,5.1,0,0,1-.3-1.5,37.7,37.7,0,0,0-3.3-8.4,66,66,0,0,0-5.8-10.2c5.4-1.6,25.2-6.4,41.9,5.2a42.4,42.4,0,0,1,8.4,7.8,29.7,29.7,0,0,1,1.2,32Z"/>
              <path class="cls-4" d="M40.2,71.5A85.3,85.3,0,0,1,57.1,88.9a87.4,87.4,0,0,1,12.4,24"/>
            </g>
            <g>
              <path class="cls-3" d="M75.8,128a1,1,0,0,0,.5.6,21.7,21.7,0,0,0,4.7,4,25,25,0,0,0,10.7,3.5,44.7,44.7,0,0,0,29.5-10.2c9.5-7.9,12.7-20.4,17.1-34.7a91.7,91.7,0,0,1,5.3-14.7,99.4,99.4,0,0,1,8.5-15.2c-8-2.2-37.3-9.4-62.1,7.8A61.1,61.1,0,0,0,77.5,80.7,43.4,43.4,0,0,0,75.8,128Z"/>
              <path class="cls-4" d="M66.8,153.2a109.8,109.8,0,0,1,10.7-29.3,111.9,111.9,0,0,1,45.1-44.7"/>
              <path class="cls-4" d="M100.4,82.4a70.2,70.2,0,0,1-2.9,8.9,71.3,71.3,0,0,1-8,14.8"/>
              <path class="cls-4" d="M119.9,107.5a47.9,47.9,0,0,0-12.6-1.7,49.5,49.5,0,0,0-17.6,3"/>
            </g>
            <g>
              <path class="cls-3" d="M72.3,71.3l.4.2a11.7,11.7,0,0,0,3,.5,11.2,11.2,0,0,0,5.7-1.2A25,25,0,0,0,92.6,58.6s3.5-8.7.1-20.2a11,11,0,0,1-.3-1.1,29.7,29.7,0,0,1-.6-6.9,60.3,60.3,0,0,1,.6-9.1c-4.2,1-19.2,5.3-26.7,19.5a38.5,38.5,0,0,0-3.1,8.5,23.4,23.4,0,0,0,1.9,13.4A20.1,20.1,0,0,0,72.3,71.3Z"/>
              <path class="cls-4" d="M79.7,44.5A67.5,67.5,0,0,0,74,62.7a71.5,71.5,0,0,0-.5,20.9"/>
            </g>
          </g>
          <circle class="cls-5" cx="80.7" cy="80.7" r="80.7"/>
        </g>
        <g>
          <path class="cls-6" d="M21.1,108.3,74.3,16.4a6.9,6.9,0,0,1,11.9,0l54,91.8a6.9,6.9,0,0,1-5.9,10.4H27.1A6.9,6.9,0,0,1,21.1,108.3Z"/>
          <g>
            <path class="cls-7" d="M82.9,87.1a2.1,2.1,0,0,1-2.1,1.7,2.2,2.2,0,0,1-2.4-1.7L73.3,44a9.1,9.1,0,0,1,14.5,0C86.2,58.4,84.6,72.7,82.9,87.1Z"/>
            <circle class="cls-7" cx="80.6" cy="99.8" r="7.2"/>
          </g>
        </g>
      </g>
    </g>
  </g>
</svg>
