<svg xmlns="http://www.w3.org/2000/svg" xmlns:xlink="http://www.w3.org/1999/xlink" viewBox="0 0 194.5 175.7">
  <defs>
    <style>
      .cls-1, .cls-6, .cls-7 {
        fill: none;
      }

      .cls-2 {
        fill: #b2d6f1;
      }

      .cls-3 {
        clip-path: url(#clip-path);
      }

      .cls-4 {
        opacity: 0.81;
      }

      .cls-5 {
        fill: #e3c94a;
      }

      .cls-5, .cls-6 {
        stroke: #a0a156;
        stroke-width: 5px;
      }

      .cls-5, .cls-6, .cls-7 {
        stroke-miterlimit: 10;
      }

      .cls-6 {
        stroke-linecap: round;
      }

      .cls-7 {
        stroke: #1a636d;
        stroke-width: 10px;
      }

      .cls-8 {
        fill: #1a636d;
      }
    </style>
    <clipPath id="clip-path" transform="translate(31.6 -0.2)">
      <circle class="cls-1" cx="80.7" cy="80.7" r="80.7"/>
    </clipPath>
  </defs>
  <g id="Layer_2" data-name="Layer 2">
    <g id="Layer_2-2" data-name="Layer 2">
      <g>
        <g>
          <circle class="cls-2" cx="112.3" cy="80.7" r="80.7"/>
          <g class="cls-3">
            <g class="cls-4">
              <g>
                <path class="cls-5" d="M41.1,102.7l-.4.5a17.9,17.9,0,0,1-4.3,3.4,21.8,21.8,0,0,1-9.6,3A41.6,41.6,0,0,1,.3,100.8S-11.6,90.8-15,71c-.1-.2-.2-1-.4-2-1.1-4.5-2.9-7.6-4.4-10.7a87.5,87.5,0,0,0-7.7-13c7.2-2,33.6-8.2,55.9,6.7a52.4,52.4,0,0,1,11.2,9.9,36.1,36.1,0,0,1,1.5,40.8Z" transform="translate(31.6 -0.2)"/>
                <path class="cls-6" d="M9.6,69.1A109.1,109.1,0,0,1,32.1,91.2a113,113,0,0,1,16.5,30.6" transform="translate(31.6 -0.2)"/>
              </g>
              <g>
                <path class="cls-5" d="M57.1,141.2a2.1,2.1,0,0,0,.6.8,28.8,28.8,0,0,0,6.3,5,31.7,31.7,0,0,0,14.3,4.4,61.3,61.3,0,0,0,39.3-12.9c12.7-10.1,16.9-26.1,22.7-44.3a151,151,0,0,1,7.1-18.8,116.6,116.6,0,0,1,11.4-19.3C148.1,53.2,109,44,76,66A81.5,81.5,0,0,0,59.3,80.8a53.4,53.4,0,0,0-2.2,60.4Z" transform="translate(31.6 -0.2)"/>
                <path class="cls-6" d="M45,173.3A136.4,136.4,0,0,1,59.4,136a138.7,138.7,0,0,1,25.7-32.9,148.3,148.3,0,0,1,34.4-24.2" transform="translate(31.6 -0.2)"/>
                <path class="cls-6" d="M89.8,83A83.4,83.4,0,0,1,86,94.3a85.2,85.2,0,0,1-10.7,18.9" transform="translate(31.6 -0.2)"/>
                <path class="cls-6" d="M115.9,115a69.2,69.2,0,0,0-16.8-2.2,71.6,71.6,0,0,0-23.5,3.8" transform="translate(31.6 -0.2)"/>
              </g>
              <g>
                <path class="cls-5" d="M52.4,68.8l.5.2a19.2,19.2,0,0,0,4.1.7,15.6,15.6,0,0,0,7.5-1.5,32.7,32.7,0,0,0,15-15.6s4.6-11.2.1-25.7a5.8,5.8,0,0,1-.4-1.6c-.9-3.4-.7-6.1-.8-8.8a80.3,80.3,0,0,1,.7-11.6c-5.5,1.4-25.5,6.9-35.5,25a41.3,41.3,0,0,0-4.2,10.9,28.1,28.1,0,0,0,2.6,17A26.8,26.8,0,0,0,52.4,68.8Z" transform="translate(31.6 -0.2)"/>
                <path class="cls-6" d="M62.2,34.6a89.7,89.7,0,0,0-7.6,23.2A84.1,84.1,0,0,0,54,84.5" transform="translate(31.6 -0.2)"/>
              </g>
            </g>
          </g>
        </g>
        <g>
          <path class="cls-7" d="M21.1,109.6,74.3,17.7a6.9,6.9,0,0,1,11.9,0l54,91.9a6.8,6.8,0,0,1-5.9,10.3H27.1A6.9,6.9,0,0,1,21.1,109.6Z" transform="translate(31.6 -0.2)"/>
          <g>
            <path class="cls-8" d="M83.9,83.4a2.1,2.1,0,0,1-2.1,1.7,2.2,2.2,0,0,1-2.4-1.7L74.3,40.3a9.1,9.1,0,0,1,14.5,0C87.2,54.7,85.6,69,83.9,83.4Z" transform="translate(31.6 -0.2)"/>
            <circle class="cls-8" cx="113.2" cy="95.9" r="7.2"/>
          </g>
        </g>
      </g>
    </g>
  </g>
</svg>
