<svg xmlns="http://www.w3.org/2000/svg" xmlns:xlink="http://www.w3.org/1999/xlink" viewBox="0 0 386 313.1">
  <defs>
    <style>
      .cls-1, .cls-2 {
        fill: none;
      }

      .cls-2 {
        stroke: #a0b2db;
        stroke-width: 2.88px;
      }

      .cls-3 {
        fill: #f2764f;
      }

      .cls-4 {
        fill: #fbc0a5;
      }

      .cls-5 {
        fill: #f79d7d;
      }

      .cls-6 {
        fill: #f6e8c7;
      }

      .cls-7 {
        fill: #492823;
      }

      .cls-8 {
        fill: #623b33;
      }

      .cls-9 {
        fill: #13606d;
      }

      .cls-10 {
        fill: #c86480;
      }

      .cls-11 {
        fill: #ae785b;
      }

      .cls-12 {
        fill: #f2ac2d;
      }

      .cls-13 {
        fill: #a0b2db;
      }

      .cls-14 {
        fill: #fcc9a7;
      }

      .cls-15 {
        fill: #935287;
      }

      .cls-16 {
        fill: #79554d;
      }

      .cls-17 {
        fill: #e4c94b;
      }

      .cls-18 {
        fill: url(#_10_lpi_40_);
      }
    </style>
    <pattern id="_10_lpi_40_" data-name="10 lpi 40%" width="72" height="72" patternTransform="translate(183.8 -58)" patternUnits="userSpaceOnUse" viewBox="0 0 72 72">
      <rect class="cls-1" width="72" height="72"/>
      <g>
        <line class="cls-2" x1="71.8" y1="68.4" x2="144.3" y2="68.4"/>
        <line class="cls-2" x1="71.8" y1="54" x2="144.3" y2="54"/>
        <line class="cls-2" x1="71.8" y1="39.6" x2="144.3" y2="39.6"/>
        <line class="cls-2" x1="71.8" y1="25.2" x2="144.3" y2="25.2"/>
        <line class="cls-2" x1="71.8" y1="10.8" x2="144.3" y2="10.8"/>
        <line class="cls-2" x1="71.8" y1="61.2" x2="144.3" y2="61.2"/>
        <line class="cls-2" x1="71.8" y1="46.8" x2="144.3" y2="46.8"/>
        <line class="cls-2" x1="71.8" y1="32.4" x2="144.3" y2="32.4"/>
        <line class="cls-2" x1="71.8" y1="18" x2="144.3" y2="18"/>
        <line class="cls-2" x1="71.8" y1="3.6" x2="144.3" y2="3.6"/>
      </g>
      <g>
        <line class="cls-2" x1="-0.3" y1="68.4" x2="72.3" y2="68.4"/>
        <line class="cls-2" x1="-0.3" y1="54" x2="72.3" y2="54"/>
        <line class="cls-2" x1="-0.3" y1="39.6" x2="72.3" y2="39.6"/>
        <line class="cls-2" x1="-0.3" y1="25.2" x2="72.3" y2="25.2"/>
        <line class="cls-2" x1="-0.3" y1="10.8" x2="72.3" y2="10.8"/>
        <line class="cls-2" x1="-0.3" y1="61.2" x2="72.3" y2="61.2"/>
        <line class="cls-2" x1="-0.3" y1="46.8" x2="72.3" y2="46.8"/>
        <line class="cls-2" x1="-0.3" y1="32.4" x2="72.3" y2="32.4"/>
        <line class="cls-2" x1="-0.3" y1="18" x2="72.3" y2="18"/>
        <line class="cls-2" x1="-0.3" y1="3.6" x2="72.3" y2="3.6"/>
      </g>
      <g>
        <line class="cls-2" x1="-72.3" y1="68.4" x2="0.3" y2="68.4"/>
        <line class="cls-2" x1="-72.3" y1="54" x2="0.3" y2="54"/>
        <line class="cls-2" x1="-72.3" y1="39.6" x2="0.3" y2="39.6"/>
        <line class="cls-2" x1="-72.3" y1="25.2" x2="0.3" y2="25.2"/>
        <line class="cls-2" x1="-72.3" y1="10.8" x2="0.3" y2="10.8"/>
        <line class="cls-2" x1="-72.3" y1="61.2" x2="0.3" y2="61.2"/>
        <line class="cls-2" x1="-72.3" y1="46.8" x2="0.3" y2="46.8"/>
        <line class="cls-2" x1="-72.3" y1="32.4" x2="0.3" y2="32.4"/>
        <line class="cls-2" x1="-72.3" y1="18" x2="0.3" y2="18"/>
        <line class="cls-2" x1="-72.3" y1="3.6" x2="0.3" y2="3.6"/>
      </g>
    </pattern>
  </defs>
  <g id="Layer_2" data-name="Layer 2">
    <g id="Layer_1-2" data-name="Layer 1">
      <g>
        <g>
          <g>
            <polygon class="cls-3" points="26.1 258.2 57.1 258.2 53.1 144.4 30.5 144.4 26.1 258.2"/>
            <g>
              <path class="cls-4" d="M32.5,136v-3.5a29.9,29.9,0,0,1-2.4-1.8,19.7,19.7,0,0,1-3.2-3.4,43.5,43.5,0,0,1-3-5.4,38.9,38.9,0,0,1-2-5.2,18.7,18.7,0,0,1-.4-5,20.9,20.9,0,0,1,.4-2.8,6.2,6.2,0,0,1,3.4-4.7,6.1,6.1,0,0,1,5.7.2l4.9,3.1,8.4,4.8,15.6-.8a20.2,20.2,0,0,1-.6,7.4,36.1,36.1,0,0,1-3.3,7.6c-1.3,2.5-2.6,4.7-3.6,6.4s-.6,3.3-.8,4.9v2.4l-19.7-.8Z"/>
              <polygon class="cls-5" points="29.9 113.8 30.5 115.1 31.8 116.1 33.1 116.5 34.5 116.5 33.2 115.2 29.9 113.8"/>
              <path class="cls-5" d="M44.5,112.4l-14-7.7V91.4a5.4,5.4,0,0,1,10.2,0h.5a4.1,4.1,0,0,1,3.7-2.5,4.2,4.2,0,0,1,4,2.8v4.5l1.2-2a4.9,4.9,0,0,1,4.1-1.3,4.8,4.8,0,0,1,3.6,4.6c-.3,1.1-.5,2.2-.7,3.3a4.6,4.6,0,0,1,3.7.1,4.4,4.4,0,0,1,2.4,3.3,3.2,3.2,0,0,1,0,1.7,62.1,62.1,0,0,1-4.6,10c-.7,1.3-1.4,2.6-2.2,3.8a3.3,3.3,0,0,1-4.5,1.5,3.2,3.2,0,0,1-1.2-4.4c1.2-3.1.6-1.2,1.8-4.3l-.6-.4-2.3,5.7a2.9,2.9,0,0,1-5.6-1.3l1-2.4.5-1.3Z"/>
              <path class="cls-5" d="M38.5,116.9l1.4.2,2.3-.2.9-.4a2.9,2.9,0,0,0,.8-1.1,5.4,5.4,0,0,0,.4-1.5,9.7,9.7,0,0,0,.1-1.6l1.1.5-1.8,4.9H42.2a4.2,4.2,0,0,1-1.4.3,3.9,3.9,0,0,1-2.1-.4.7.7,0,0,1-.3-.4A1,1,0,0,1,38.5,116.9Z"/>
            </g>
            <path class="cls-6" d="M31.6,136a4.8,4.8,0,0,0-.9,3.2,3.3,3.3,0,0,1,0,1,9.3,9.3,0,0,1-.5,2.1,3.4,3.4,0,0,0,.3,2.1,86.6,86.6,0,0,0,12.9.6,73.2,73.2,0,0,0,9.7-.6,15,15,0,0,0,.3-4.9l-.3-2a38.2,38.2,0,0,1-11.3.7A38.1,38.1,0,0,1,31.6,136Z"/>
          </g>
          <g>
            <g>
              <path class="cls-7" d="M150.5,125.7l.2-3.5-2.3-1.9a20.8,20.8,0,0,1-2.9-3.6,36.7,36.7,0,0,1-2.7-5.6,55.6,55.6,0,0,1-1.8-5.3,27.7,27.7,0,0,1,0-5,20.2,20.2,0,0,1,.5-2.8,7,7,0,0,1,3.7-4.5,6.7,6.7,0,0,1,5.7.5l4.8,3.5,8,5.3h15.6a20.3,20.3,0,0,1-1,7.3c-.7,2.3-1.7,4.1-3.8,7.5s-2.8,4.5-4,6.2-.7,3.1-1.1,4.7l-.2,2.5L149.6,129Z"/>
              <polygon class="cls-8" points="149.3 103.4 149.7 104.7 151 105.8 152.2 106.3 153.7 106.4 152.5 105 149.3 103.4"/>
              <path class="cls-8" d="M163.9,102.8l-13.5-8.5.8-13.3a5.5,5.5,0,0,1,5.8-3.3,5.4,5.4,0,0,1,4.3,3.9h.6a4.1,4.1,0,0,1,3.8-2.3,4.1,4.1,0,0,1,3.8,3.1l-.3,4.5,1.4-1.9a4.8,4.8,0,0,1,4.2-1.1,4.7,4.7,0,0,1,3.2,4.8c-.3,1.1-.5,2.2-.8,3.3a4.5,4.5,0,0,1,3.7.3,4.5,4.5,0,0,1,2.2,3.4,4.4,4.4,0,0,1-.1,1.7,66.8,66.8,0,0,1-5.2,9.7c-.8,1.3-1.6,2.5-2.5,3.7a3.3,3.3,0,0,1-4.5,1.3,3.4,3.4,0,0,1-1-4.6c1.5-3,.7-1.1,2.1-4.1l-.6-.5-2.7,5.5a2.8,2.8,0,0,1-3.5,1.5,2.7,2.7,0,0,1-1.9-3,17.5,17.5,0,0,1,1.1-2.4l.5-1.2Z"/>
              <path class="cls-8" d="M157.6,107l1.5.3a8.3,8.3,0,0,0,2.3-.1l.8-.4a3.1,3.1,0,0,0,1-1,15.5,15.5,0,0,0,.4-1.5,10.4,10.4,0,0,0,.2-1.5l1,.6-2,4.7h-1.6l-1.3.2a4.6,4.6,0,0,1-2.1-.5.7.7,0,0,1-.3-.4A1,1,0,0,1,157.6,107Z"/>
            </g>
            <polygon class="cls-9" points="143.1 255.7 174.1 255.7 170.1 135.6 147.5 135.6 143.1 255.7"/>
            <path class="cls-10" d="M148.6,127.2a4.7,4.7,0,0,0-.9,3.2c0,.2.1.5.1.9a7.1,7.1,0,0,1-.6,2.2,3.5,3.5,0,0,0,.3,2.1,103.5,103.5,0,0,0,12.9.6c3.5-.1,6.8-.3,9.7-.6a15.4,15.4,0,0,0,.3-5,6.9,6.9,0,0,0-.3-2,40.7,40.7,0,0,1-11.3.8A42.5,42.5,0,0,1,148.6,127.2Z"/>
          </g>
          <g>
            <path class="cls-11" d="M90,118.1V96.8L85.1,92c-2.5-2.7-4.8-5.3-6.8-7.7A25.6,25.6,0,0,1,75.2,79a23.6,23.6,0,0,1-1.3-3.7A29,29,0,0,1,72,72.4a13.7,13.7,0,0,1-1.3-2c-.4-.9-.8-1.9-1.3-2.9l-.9-2a44.7,44.7,0,0,1-3.2-4.1,11,11,0,0,1-.9-1.4,3.4,3.4,0,0,1,1.1-2.1,4,4,0,0,1,2.5-.7,16.4,16.4,0,0,1,4.8,2.4,16.7,16.7,0,0,1,4.8,5.1,18.1,18.1,0,0,0,1.8,2.7,20.7,20.7,0,0,0,3,3.4c0,.1.3.3.6.3s.9-.4,1-1.1c.1-2.5.2-5,.4-7.4l-.3-3.4L76,30.9a3.7,3.7,0,0,1,2.4-4.5A3.7,3.7,0,0,1,83,28.3l6.5,19.6L91.1,52a3.7,3.7,0,0,0,.8,1.5,3.1,3.1,0,0,0,1,.8,2.4,2.4,0,0,0,1.3-.5,1.4,1.4,0,0,0,.7-1V21.9A3.5,3.5,0,0,1,98,19a3.6,3.6,0,0,1,3.8,2.9L103.6,54a1,1,0,0,0,.4.9l.5.4a2.3,2.3,0,0,0,1.1-.1,2.2,2.2,0,0,0,1-1l3.7-11.5,4.2-15.1a3.3,3.3,0,1,1,6.4,1.8c-2.7,9-5,21-5.7,24.6a15.2,15.2,0,0,0-.3,2.8v1.6a1.6,1.6,0,0,0,.6.8,1,1,0,0,0,.6.2l8.4-11.1,4.6-6.5a3,3,0,0,1,4.2-1.2,3,3,0,0,1,.7,4.2l-7.1,12.4-4.7,7.9-1.5,10.8-2.1,10.3L116,93.3l.4,27.1-26.8,1.2Z"/>
            <polygon class="cls-12" points="88.4 129.7 118.6 129.7 122.8 257 87.3 257.7 87.6 129.7 88.4 129.7"/>
            <path class="cls-13" d="M90,118.7H88.5a4.4,4.4,0,0,0-1.7.1,1.9,1.9,0,0,0-.9.5v12.2l1.3.5a12.8,12.8,0,0,0,6.1.2c.7-.2,3.2-.3,8-.6a54.5,54.5,0,0,1,8.7-.2c3.2.3,5.4,1,8.3-.2l1.8-1a30.3,30.3,0,0,0-.2-5.9,37,37,0,0,0-.7-3.8,20.3,20.3,0,0,1-1.1-2.6l-1.7-.4v3l-26.5,1.2Z"/>
          </g>
          <g>
            <path class="cls-7" d="M283.7,156.1l-.4-12.5,2.8-2.9c1.4-1.6,2.7-3.2,3.8-4.7a12.7,12.7,0,0,0,1.7-3.1,7.9,7.9,0,0,0,.7-2.2l1.1-1.7.7-1.2.7-1.8.5-1.2,1.8-2.4a5.6,5.6,0,0,1,.5-.8,1.9,1.9,0,0,0-.7-1.2,1.7,1.7,0,0,0-1.5-.4,8.3,8.3,0,0,0-2.7,1.5,8.6,8.6,0,0,0-2.7,3l-1,1.7-1.7,2a.5.5,0,0,1-.4.2q-.4,0-.6-.6c-.1-1.5-.2-2.9-.4-4.4v-1.9l4.2-16.8a2.2,2.2,0,0,0-1.4-2.6,2.2,2.2,0,0,0-2.7,1.3l-3.4,11.5-.9,2.5a4.4,4.4,0,0,1-.5.9l-.5.5-.8-.3a.9.9,0,0,1-.4-.6L279,99.8a2,2,0,0,0-1.9-1.6A2,2,0,0,0,275,100c-.2,6.2-.3,12.5-.5,18.8a.6.6,0,0,1-.2.5c-.1.2-.2.2-.3.2h-.6a.9.9,0,0,1-.6-.6l-2.4-6.6-2.8-8.7a2.1,2.1,0,0,0-2.4-1.5,2.1,2.1,0,0,0-1.3,2.6c1.8,5.2,3.3,12.2,3.8,14.3a15.4,15.4,0,0,1,.3,1.6v1a1.1,1.1,0,0,1-.4.5h-.3l-5.1-6.4c-1-1.2-1.9-2.4-2.8-3.7a1.9,1.9,0,0,0-2.6-.6,1.9,1.9,0,0,0-.3,2.5c1.5,2.3,2.9,4.7,4.4,7.1l3,4.5,1.1,6.3,1.4,6L268,142l.3,15.9,15.7.2Z"/>
            <polygon class="cls-3" points="267.2 159.1 284.9 159.1 287.3 254.8 266.6 255.2 266.8 159.1 267.2 159.1"/>
            <path class="cls-6" d="M268.2,152.6h-1.9l-.5.4v7.1l.8.3a8.4,8.4,0,0,0,3.5.1l4.7-.4a48.2,48.2,0,0,1,5.1-.1c1.8.2,3.1.6,4.8-.1l1.1-.6a20.6,20.6,0,0,0-.2-3.4,12.4,12.4,0,0,0-.4-2.2l-.6-1.5-1-.3v1.7l-15.5.8Z"/>
          </g>
          <g>
            <path class="cls-14" d="M204.5,106.5l.7-22.9-5.1-5.4c-2.6-3-5-5.8-7.1-8.6a28,28,0,0,1-3.1-5.8,26.4,26.4,0,0,1-1.3-4c-.6-1-1.3-2-1.9-3.1l-1.3-2.2c-.4-1.1-.9-2.2-1.3-3.2l-.9-2.3a32.7,32.7,0,0,1-3.3-4.5,13,13,0,0,1-1-1.5,4.1,4.1,0,0,1,1.4-2.2,3.6,3.6,0,0,1,2.6-.7A18.5,18.5,0,0,1,193,48.5a23.8,23.8,0,0,0,1.8,3,33.5,33.5,0,0,0,3.1,3.8,1.1,1.1,0,0,0,.7.3,1.2,1.2,0,0,0,1.1-1.1c.2-2.7.5-5.4.7-8V42.9l-7.8-30.8a4.1,4.1,0,0,1,7.7-2.6l6.2,21.3,1.6,4.5a4.2,4.2,0,0,0,.8,1.7l1.1.9a2.4,2.4,0,0,0,2.2-1.6L213.2,3a3.9,3.9,0,0,1,3.4-3,4,4,0,0,1,4,3.3c.2,11.5.5,23.1.7,34.7a2.8,2.8,0,0,0,.5.9c.2.3.4.4.5.4a1.6,1.6,0,0,0,1.2,0,2.1,2.1,0,0,0,1.1-1.1L229,26l5.1-16.1a3.7,3.7,0,0,1,4.4-2.6,3.7,3.7,0,0,1,2.4,4.8c-3.3,9.5-6.1,22.4-7,26.3a17.5,17.5,0,0,0-.5,2.9v1.8a1.7,1.7,0,0,0,.6.9h.7l9.4-11.6,5.2-6.8a3.2,3.2,0,0,1,4.6-1.1,3.3,3.3,0,0,1,.6,4.5l-8.1,13.1L241,50.5l-2,11.6-2.6,11-3,7.6-.6,29.1-28.9.4Z"/>
            <polygon class="cls-12" points="204.6 109.8 234.4 110.3 240.4 256.7 196.3 256.7 203.8 109.8 204.6 109.8"/>
            <path class="cls-15" d="M203.8,107.5v3a85,85,0,0,0,15.7,1.8,83.3,83.3,0,0,0,14.9-.9v-3.9L233,107a7.8,7.8,0,0,0-3.4.2c-1.3.4-4.2.7-11.3.3a32.6,32.6,0,0,1-5.3-.4l-4.1-.5c-2.1-.5-3.3-1-4.2-.4A2.6,2.6,0,0,0,203.8,107.5Z"/>
          </g>
          <g>
            <path class="cls-16" d="M319.7,133l.7-18.9-4.3-4.4c-2.1-2.5-4.1-4.8-5.8-7.1a21.1,21.1,0,0,1-2.6-4.8,17.3,17.3,0,0,1-1-3.3,22.6,22.6,0,0,1-1.6-2.6,17.4,17.4,0,0,1-1.1-1.8c-.3-.9-.7-1.7-1.1-2.6s-.5-1.2-.7-1.9a39.6,39.6,0,0,1-2.8-3.7l-.7-1.2a2.6,2.6,0,0,1,1.1-1.8,2.5,2.5,0,0,1,2.2-.6,15.6,15.6,0,0,1,4.2,2.2,17.6,17.6,0,0,1,4.1,4.7,23.6,23.6,0,0,0,1.5,2.5,16.8,16.8,0,0,0,2.5,3.1.9.9,0,0,0,.6.3,1.1,1.1,0,0,0,.9-1l.6-6.6-.2-2.9-6.3-25.4a3.3,3.3,0,0,1,6.3-2.1l5.1,17.5,1.4,3.7a2.7,2.7,0,0,0,.6,1.4,1.8,1.8,0,0,0,.9.7,2.2,2.2,0,0,0,1.1-.3,1.8,1.8,0,0,0,.7-.9l.9-27.5a3.2,3.2,0,0,1,2.8-2.5,3.2,3.2,0,0,1,3.3,2.7l.6,28.6a1.4,1.4,0,0,0,.4.8.5.5,0,0,0,.5.3.9.9,0,0,0,.9,0,1.5,1.5,0,0,0,.9-.9l3.6-10.1,4.2-13.2a3,3,0,1,1,5.7,1.8c-2.7,7.8-5.1,18.5-5.8,21.6a19.9,19.9,0,0,0-.4,2.5v1.4a1.2,1.2,0,0,0,.5.8h.6l7.7-9.6,4.3-5.6a2.6,2.6,0,0,1,3.8-.9,2.7,2.7,0,0,1,.4,3.7L354.3,80l-4.5,6.9-1.6,9.5-2.1,9.1-2.6,6.2-.4,24.1-23.8.3Z"/>
            <polygon class="cls-9" points="319.8 135.7 344.4 136.2 349.3 256.9 313 256.9 319.2 135.7 319.8 135.7"/>
            <path class="cls-17" d="M319.2,133.8v2.5a65.4,65.4,0,0,0,12.9,1.5,75.6,75.6,0,0,0,12.3-.7v-3.3l-1.1-.3a5.6,5.6,0,0,0-2.8.1c-1.1.3-3.5.5-9.3.2a26.4,26.4,0,0,1-4.5-.3l-3.3-.4c-1.8-.4-2.8-.8-3.5-.3A2,2,0,0,0,319.2,133.8Z"/>
          </g>
        </g>
        <path class="cls-6" d="M5.1,266.1c-6.1,11.1-7.4,27.2,0,36.8,16.7,21.9,66.4-5.1,133.3-13.3,125.2-15.2,190.4,50,229.7,10.8,17.7-17.6,23.5-49.6,11.8-66.6-19-27.5-72.3,1.1-192.9,8.3C82.6,248.5,23.3,233.1,5.1,266.1Z"/>
        <path class="cls-18" d="M240.2,278.6c-44.1,4.7-55.5-23.7-112.6-23-28.3.3-63.9,7.8-64.3,16.8-.7,13.8,79.3,30.8,149.8,31.6,37.6.4,103.5,1.2,116.4-29.7,3.5-8.3,3.7-20.2-2.3-25.3C314,237.6,286.7,273.5,240.2,278.6Z"/>
      </g>
    </g>
  </g>
</svg>
