<svg xmlns="http://www.w3.org/2000/svg" viewBox="0 0 390.3 216.8">
  <defs>
    <style>
      .cls-1, .cls-3 {
        fill: none;
      }

      .cls-2 {
        fill: #f3ac2e;
      }

      .cls-2, .cls-3 {
        stroke: #666;
        stroke-miterlimit: 10;
        stroke-width: 5px;
      }

      .cls-4 {
        font-size: 61px;
        fill: gray;
        font-family: SegoeUIBlack, Segoe UI;
      }
    </style>
  </defs>
  <g id="Layer_2" data-name="Layer 2">
    <g id="Layer_2-2" data-name="Layer 2">
      <g>
        <path class="cls-1" d="M24.7,65.9C15.1,76.1,12,91.6,15.4,104.1a38.6,38.6,0,0,0,2,5.4l45.2-7V60.8H30.5A35.2,35.2,0,0,0,24.7,65.9Z"/>
        <path class="cls-1" d="M344.6,164a28.9,28.9,0,0,0-32.1,16.6c-6.2-13.1-20.8-19.7-34-15.9A29,29,0,0,0,259.6,183h3.9a24.7,24.7,0,0,1,46.2,0h5.6a24.7,24.7,0,0,1,46.2,0h4.7A29,29,0,0,0,344.6,164Z"/>
        <path class="cls-1" d="M59.9,163.6A28.7,28.7,0,0,0,32.8,183h3.6a24.7,24.7,0,0,1,46.2,0h4.3A28.6,28.6,0,0,0,59.9,163.6Z"/>
        <polygon class="cls-1" points="67.6 101.8 92.7 94.8 92.7 60.8 67.6 60.8 67.6 101.8"/>
        <path class="cls-2" d="M266.6,194.3a20,20,0,0,0,40,0,20.8,20.8,0,0,0-1.3-7.1H267.9A20.8,20.8,0,0,0,266.6,194.3Z"/>
        <path class="cls-2" d="M318.4,194.3a20,20,0,1,0,40,0,20.8,20.8,0,0,0-1.3-7.1H319.7A18.7,18.7,0,0,0,318.4,194.3Z"/>
        <path class="cls-2" d="M88.4,192.8h17.8v7.7H241v-7.3h17a34.8,34.8,0,0,1,1.6-9.2H86.9A25.8,25.8,0,0,1,88.4,192.8Z"/>
        <path class="cls-2" d="M7.7,187.4a19.2,19.2,0,0,0,10.8,5.4H31.3a28.5,28.5,0,0,1,1.5-8.8H5.1A19.2,19.2,0,0,0,7.7,187.4Z"/>
        <path class="cls-2" d="M366.2,184a31.1,31.1,0,0,1,1.5,9.2h8.5a13.5,13.5,0,0,0,8.5-4.7A11.3,11.3,0,0,0,387,184Z"/>
        <path class="cls-3" d="M286.6,173.6a19.8,19.8,0,0,0-18.5,12.8h37A19.7,19.7,0,0,0,286.6,173.6Z"/>
        <path class="cls-3" d="M338.4,172.8a19.2,19.2,0,0,0-18,12.4h36A19.4,19.4,0,0,0,338.4,172.8Z"/>
        <path class="cls-3" d="M387.4,181V157.4h-6.2V9.5a8,8,0,0,0-2.3-4.7,8.2,8.2,0,0,0-4.6-2.3H139.4a9.1,9.1,0,0,0-5.8,2.3,9.6,9.6,0,0,0-3,6.6v146H119.4V30.3H74.9A82.3,82.3,0,0,0,61,34.2,89.2,89.2,0,0,0,32.4,51.6a12.9,12.9,0,0,0-6.5,0C14.1,54.4,6.3,73.3,5.4,98.3v59.5H2.5v17.9A19.9,19.9,0,0,0,5.1,183H32.8a28.6,28.6,0,0,1,54.1,0H259.6a29,29,0,0,1,18.9-18.3c13.2-3.8,27.8,2.8,34,15.9a28.9,28.9,0,0,1,53.7,2.4H387A6.3,6.3,0,0,0,387.4,181ZM66.6,102.5l-45.2,7a38.6,38.6,0,0,1-2-5.4c-3.4-12.5-.3-28,9.3-38.2a35.2,35.2,0,0,1,5.8-5.1H66.6Zm34.1-7.7-25.1,7v-41h25.1Z"/>
        <text class="cls-4" transform="translate(188.3 88)">14%</text>
        <g>
          <path class="cls-2" d="M39.5,194.3a20,20,0,0,0,40,0,20.8,20.8,0,0,0-1.3-7.1H40.8A20.8,20.8,0,0,0,39.5,194.3Z"/>
          <path class="cls-3" d="M59.5,173.6A19.7,19.7,0,0,0,41,186.4H78A19.8,19.8,0,0,0,59.5,173.6Z"/>
        </g>
      </g>
    </g>
  </g>
</svg>
