<svg xmlns="http://www.w3.org/2000/svg" viewBox="0 0 119.6 33.3">
  <defs>
    <style>
      .cls-1 {
        fill: #f2ac2d;
      }

      .cls-2 {
        fill: #13606d;
      }
    </style>
  </defs>
  <g id="Layer_2" data-name="Layer 2">
    <g id="Layer_1-2" data-name="Layer 1">
      <g>
        <g>
          <rect class="cls-1" x="2.5" width="68.8" height="17.86" rx="2.2" transform="translate(73.9 17.9) rotate(-180)"/>
          <path class="cls-1" d="M10.5,23.3a4.9,4.9,0,0,0-6,6,4.6,4.6,0,0,0,3.3,3.4,4.9,4.9,0,1,0,2.7-9.4ZM9.2,30.2A2.2,2.2,0,0,1,7,28a2.1,2.1,0,0,1,2.2-2.1A2.1,2.1,0,0,1,11.3,28,2.1,2.1,0,0,1,9.2,30.2Z"/>
          <path class="cls-1" d="M9.2,26.8A1.2,1.2,0,0,0,7.9,28a1.3,1.3,0,0,0,1.3,1.3A1.2,1.2,0,0,0,10.4,28,1.2,1.2,0,0,0,9.2,26.8Z"/>
          <path class="cls-1" d="M92.8,20.4H91.7a.9.9,0,0,1-1-.9V11.3L86.8.6a.9.9,0,0,0-.9-.6h-11a.9.9,0,0,0-1,1V15.7a4.7,4.7,0,0,1-4.8,4.7H1a1,1,0,0,0-1,1v3a.9.9,0,0,0,1,.9H3.5a6.5,6.5,0,0,1,5.7-3.6,6.2,6.2,0,0,1,5.6,3.6h2.3a6.4,6.4,0,0,1,5.7-3.6,6.2,6.2,0,0,1,5.6,3.6H77.1a6.2,6.2,0,0,1,11.2,0h4.5a.9.9,0,0,0,.9-.9v-3A1,1,0,0,0,92.8,20.4Zm-6.9-8.5H77.8a1.2,1.2,0,0,1-1.2-1.3V3.7a1.2,1.2,0,0,1,1.2-1.3h6.1a1.3,1.3,0,0,1,1.2.8l2,7A1.3,1.3,0,0,1,85.9,11.9Z"/>
          <path class="cls-1" d="M22.8,26.8A1.2,1.2,0,0,0,21.5,28a1.3,1.3,0,0,0,1.3,1.3A1.2,1.2,0,0,0,24,28,1.2,1.2,0,0,0,22.8,26.8Z"/>
          <path class="cls-1" d="M24.1,23.3a4.9,4.9,0,0,0-6.1,6,4.9,4.9,0,1,0,6.1-6Zm-1.3,6.9A2.2,2.2,0,0,1,20.6,28a2.1,2.1,0,0,1,2.2-2.1A2.1,2.1,0,0,1,24.9,28,2.1,2.1,0,0,1,22.8,30.2Z"/>
          <path class="cls-1" d="M82.7,26.8A1.2,1.2,0,0,0,81.4,28a1.3,1.3,0,0,0,1.3,1.3A1.2,1.2,0,0,0,83.9,28,1.2,1.2,0,0,0,82.7,26.8Z"/>
          <path class="cls-1" d="M84,23.3a4.9,4.9,0,0,0-6,6,4.5,4.5,0,0,0,3.4,3.4,4.9,4.9,0,0,0,6-6A4.7,4.7,0,0,0,84,23.3Zm-1.3,6.9A2.2,2.2,0,0,1,80.5,28a2.2,2.2,0,0,1,4.4,0A2.2,2.2,0,0,1,82.7,30.2Z"/>
        </g>
        <g id="Layer_1-2-2" data-name="Layer 1-2">
          <path class="cls-2" d="M58.7,22.5c.8,1.8.4,4.2.6,5.2a6,6,0,0,0,.6,1.1,3.2,3.2,0,0,0,2.7,1.4h3.3a5.5,5.5,0,0,1,0-3.1,6,6,0,0,1,7.3-4.2,5.9,5.9,0,0,1,4.1,7.3h23a5.5,5.5,0,0,1,0-3.1,5.9,5.9,0,0,1,7.2-4.2,6,6,0,0,1,4.2,7.3h3.7a3.5,3.5,0,0,0,2.3-.9,5.8,5.8,0,0,0,1.1-1.5,3.9,3.9,0,0,0,.4-.9l.4-.8c.2-.6-.9-2.3-2.8-3.6-4.1-2.9-11-4-13.4-4.4A20,20,0,0,0,97.3,13c-7.4-4.1-15.4-2.8-16.6-2.6a22.8,22.8,0,0,0-14.6,8.5c-6.6.4-8.3,1.3-8.5,2.1S58.1,21.5,58.7,22.5ZM86,12a22.1,22.1,0,0,1,13,5c.5.5.1,1.2-.6,1.2H86V12ZM71.6,18.3c-.8,0-1.2-.7-.7-1.1A21.3,21.3,0,0,1,84,12v6.3Z"/>
          <path class="cls-2" d="M101.3,28.6h0a4.7,4.7,0,1,0,4.7-4.7A4.7,4.7,0,0,0,101.3,28.6Zm4.7,1.7a1.6,1.6,0,0,1-1.7-1.7,1.7,1.7,0,0,1,1.7-1.7,1.8,1.8,0,0,1,1.7,1.7,1.7,1.7,0,0,1-1.7,1.7Z"/>
          <path class="cls-2" d="M66.9,28.6h0a4.7,4.7,0,1,0,4.7-4.7A4.7,4.7,0,0,0,66.9,28.6Zm4.7,1.7a1.7,1.7,0,0,1-1.7-1.7,1.8,1.8,0,0,1,1.7-1.7,1.7,1.7,0,0,1,1.7,1.7,1.6,1.6,0,0,1-1.7,1.7Z"/>
          <circle class="cls-2" cx="106" cy="28.6" r="0.7"/>
          <circle class="cls-2" cx="71.6" cy="28.6" r="0.7"/>
        </g>
      </g>
    </g>
  </g>
</svg>
