<svg xmlns="http://www.w3.org/2000/svg" viewBox="0 0 65.8 65.8">
  <defs>
    <style>
      .cls-1 {
        opacity: 0.33;
      }

      .cls-2 {
        fill: #5cbae3;
      }

      .cls-3 {
        opacity: 0.67;
      }

      .cls-4 {
        fill: #5ab9e3;
      }

      .cls-5 {
        fill: none;
        stroke: #f2ac2d;
        stroke-miterlimit: 10;
        stroke-width: 6px;
      }
    </style>
  </defs>
  <g id="Layer_2" data-name="Layer 2">
    <g id="Layer_1-2" data-name="Layer 1">
      <g>
        <g class="cls-1">
          <g id="Layer_1-2-2" data-name="Layer 1-2">
            <path class="cls-2" d="M4.6,26.9c.6,1.2.3,2.9.5,3.5s.2.5.3.8a2.2,2.2,0,0,0,1.9.9H9.5a3.8,3.8,0,0,1,0-2.1,4.1,4.1,0,0,1,5-2.8,4,4,0,0,1,2.8,4.9H32.8a3.8,3.8,0,0,1,0-2.1,4.1,4.1,0,0,1,5-2.8,4,4,0,0,1,2.8,4.9h2.5a2.2,2.2,0,0,0,1.5-.6,3.9,3.9,0,0,0,.8-1,1.6,1.6,0,0,0,.3-.6l.2-.5c.2-.5-.5-1.6-1.8-2.5-2.9-2-7.5-2.7-9.1-3a13.7,13.7,0,0,0-4.2-3.4,17.7,17.7,0,0,0-11.3-1.8,14.8,14.8,0,0,0-9.8,5.8c-4.5.3-5.7.8-5.8,1.4S4.2,26.2,4.6,26.9Zm18.6-7.1A14.4,14.4,0,0,1,32,23.2a.5.5,0,0,1-.4.8H23.2V19.8Zm-9.8,4.3c-.5,0-.8-.5-.5-.8a14.6,14.6,0,0,1,8.9-3.5V24Z"/>
            <path class="cls-2" d="M33.5,31.1h0a3.2,3.2,0,1,0,6.4,0,3.2,3.2,0,1,0-6.4,0Zm3.2,1.1a1.1,1.1,0,0,1-1.1-1.1,1.1,1.1,0,1,1,2.2,0,1.1,1.1,0,0,1-1.1,1.1Z"/>
            <path class="cls-2" d="M10.2,31.1h0a3.2,3.2,0,0,0,6.4,0,3.2,3.2,0,0,0-6.4,0Zm3.2,1.1a1.2,1.2,0,0,1-1.2-1.1,1.2,1.2,0,0,1,1.2-1.2,1.1,1.1,0,0,1,1.1,1.2,1.1,1.1,0,0,1-1.1,1.1Z"/>
            <circle class="cls-2" cx="36.7" cy="31.1" r="0.5"/>
            <circle class="cls-2" cx="13.4" cy="31.1" r="0.5"/>
          </g>
        </g>
        <g class="cls-3">
          <g id="Layer_1-2-3" data-name="Layer 1-2">
            <path class="cls-2" d="M21.6,30.5c.6,1.2.3,2.9.5,3.5a2.1,2.1,0,0,0,.3.7,2.3,2.3,0,0,0,1.9,1h2.2a3.8,3.8,0,0,1,0-2.1,4,4,0,0,1,5-2.8,3.9,3.9,0,0,1,2.8,4.9H49.8a3.8,3.8,0,0,1,0-2.1,4,4,0,0,1,5-2.8,3.9,3.9,0,0,1,2.8,4.9h2.5a2.2,2.2,0,0,0,1.5-.6l.8-1,.3-.7a1.7,1.7,0,0,0,.2-.5c.2-.4-.5-1.5-1.8-2.4-2.9-2-7.5-2.8-9.1-3A15.7,15.7,0,0,0,47.8,24a19.3,19.3,0,0,0-11.3-1.8A15.7,15.7,0,0,0,26.7,28c-4.5.3-5.7.9-5.8,1.4S21.2,29.8,21.6,30.5Zm18.6-7.2A15.1,15.1,0,0,1,49,26.8a.5.5,0,0,1-.4.8H40.2V23.3Zm-9.8,4.3c-.5,0-.8-.4-.5-.8a15.2,15.2,0,0,1,8.9-3.5v4.3Z"/>
            <path class="cls-2" d="M50.5,34.6h0a3.2,3.2,0,1,0,6.4,0,3.2,3.2,0,1,0-6.4,0Zm3.2,1.2a1.1,1.1,0,0,1-1.1-1.2,1.1,1.1,0,1,1,2.2,0,1.1,1.1,0,0,1-1.1,1.2Z"/>
            <path class="cls-2" d="M27.2,34.6h0a3.2,3.2,0,1,0,6.4,0,3.2,3.2,0,0,0-6.4,0Zm3.2,1.2a1.2,1.2,0,0,1-1.2-1.2,1.2,1.2,0,0,1,1.2-1.1,1.1,1.1,0,0,1,1.1,1.1,1.1,1.1,0,0,1-1.1,1.2Z"/>
            <circle class="cls-2" cx="53.7" cy="34.6" r="0.5"/>
            <circle class="cls-2" cx="30.4" cy="34.6" r="0.5"/>
          </g>
        </g>
        <g id="Layer_1-2-4" data-name="Layer 1-2">
          <path class="cls-4" d="M10.6,36.3c.6,1.2.3,2.9.5,3.5a1.5,1.5,0,0,0,.3.7,2.3,2.3,0,0,0,1.9,1h2.2a3.8,3.8,0,0,1,0-2.1,4.1,4.1,0,0,1,5-2.8,4,4,0,0,1,2.8,4.9H38.8a3.8,3.8,0,0,1,0-2.1,4,4,0,0,1,7.8,2.1h2.5a2.2,2.2,0,0,0,1.5-.6,3.9,3.9,0,0,0,.8-1l.3-.6.2-.6c.2-.4-.5-1.5-1.8-2.4-2.9-2-7.5-2.8-9.1-3a15.7,15.7,0,0,0-4.2-3.5,18.1,18.1,0,0,0-11.3-1.7,15.3,15.3,0,0,0-9.8,5.7c-4.5.3-5.7.9-5.8,1.4S10.2,35.6,10.6,36.3Zm18.6-7.1A14.4,14.4,0,0,1,38,32.6a.5.5,0,0,1-.4.8H29.2V29.2Zm-9.8,4.3c-.5,0-.8-.5-.5-.8a14,14,0,0,1,8.9-3.5v4.2Z"/>
          <path class="cls-4" d="M39.5,40.4h0a3.2,3.2,0,0,0,6.4,0,3.2,3.2,0,0,0-6.4,0Zm3.2,1.2a1.1,1.1,0,0,1-1.1-1.2,1.1,1.1,0,1,1,2.2,0,1.1,1.1,0,0,1-1.1,1.2Z"/>
          <path class="cls-4" d="M16.2,40.4h0a3.2,3.2,0,0,0,6.4,0,3.2,3.2,0,0,0-6.4,0Zm3.2,1.2a1.2,1.2,0,0,1-1.2-1.2,1.2,1.2,0,0,1,1.2-1.1,1.1,1.1,0,0,1,1.1,1.1,1.1,1.1,0,0,1-1.1,1.2Z"/>
          <circle class="cls-4" cx="42.7" cy="40.4" r="0.5"/>
          <circle class="cls-4" cx="19.4" cy="40.4" r="0.5"/>
        </g>
        <g>
          <circle class="cls-5" cx="32.9" cy="32.9" r="29.9"/>
          <line class="cls-5" x1="12.3" y1="11.4" x2="54.6" y2="53.6"/>
        </g>
      </g>
    </g>
  </g>
</svg>
