<svg xmlns="http://www.w3.org/2000/svg" viewBox="0 0 1753.55 1006.74"><defs><style>.cls-1{fill:#f6e8c7;}.cls-2{fill:#ee6e4c;}.cls-3{fill:#ae785b;}.cls-4{fill:#492823;}.cls-5{fill:#e4c94b;}.cls-6{fill:#13606d;}.cls-7{fill:#fbc0a5;}.cls-8{fill:#0e4852;}.cls-9{fill:#935287;}.cls-10{fill:#f2ac2d;}</style></defs><g id="Layer_2" data-name="Layer 2"><g id="Layer_2-2" data-name="Layer 2"><rect class="cls-1" x="220.55" width="1533" height="869" rx="12"/><path class="cls-2" d="M37.24,774.81c1.18-2.15,11.28-19.7,32.24-22.88,16.4-2.49,33.1,4.78,43.16,18.72a127.79,127.79,0,0,1,4.16,13A128.79,128.79,0,0,1,121,815.37a39.25,39.25,0,0,1,2.6,20.28c-.33,2.32-1.4,9.9-6.24,16.12-4.25,5.46-9.25,7.09-34.32,12.48-26.43,5.69-33.52,6.59-42.12,3.12-4.75-1.91-8.06-3.25-10.4-6.76-6.84-10.22,6.53-20.86,4.68-43.16C34.29,807.11,31,804,32,793A53.32,53.32,0,0,1,37.24,774.81Z"/><path class="cls-3" d="M220.79,770.34c-.34,10.87-.2,19.4,0,25.27.18,4.9.49,8.75,1,13,.5,3.82,1.08,7,1.56,9.36a14.33,14.33,0,0,0,4.16,6.24,14.13,14.13,0,0,0,6.24,3.12,9,9,0,0,1,4.68,4.68,10.12,10.12,0,0,1,.52,3.12,27.66,27.66,0,0,1-.52,7.28H275.4a38.38,38.38,0,0,1-4.16-19.24q-4.15-26.52-8.32-53a115.27,115.27,0,0,0-28.6-1.56A112.77,112.77,0,0,0,220.79,770.34Z"/><path class="cls-4" d="M271.24,823.17a39.58,39.58,0,0,0,21.32-40.56,39.09,39.09,0,0,0-25.48-29.12,70.79,70.79,0,0,0-20.28-5.72,20.84,20.84,0,0,0-12,1,20,20,0,0,0-5.2,3.12,9.28,9.28,0,0,1-1-10.4,56.64,56.64,0,0,0-3.64,5.2c-1,1.63-1.87,3.21-2.6,4.68-.37-1.32-.72-2.71-1-4.16-.44-2-.78-3.92-1-5.72L212,756.09c-.1.21-2.51,5.29.52,9.88a10,10,0,0,0,10.4,4.16,46.72,46.72,0,0,1,25.48,3.12A13.71,13.71,0,0,1,254.6,779a14.14,14.14,0,0,1,1,10.92l-1.56,10.92a33,33,0,0,0,4.16,10.4A33.4,33.4,0,0,0,271.24,823.17Z"/><path class="cls-3" d="M186,951.61l.86,29.93.7,24.16h27V951.54Z"/><path class="cls-3" d="M303.6,946.56l30.15-.82c.55,7.6.89,15.64.94,24.08.07,12.86-.54,24.87-1.56,35.88h-20.8q-1.33-12.19-3.12-25Q306.69,963,303.6,946.56Z"/><path class="cls-5" d="M238.48,842.41h45.76q-1,5.46-2.08,10.92A42.6,42.6,0,0,1,306.61,858a38.62,38.62,0,0,1,14.56,13c1.52,2.37,2.88,5.12,7.28,32.24,1.16,7.16,2.1,13.36,2.6,16.64,1.11,7.37,2,13.48,2.6,17.68,3,4.51,2.66,6.69,2.08,7.8-2.21,4.2-13.5,3.07-28.6,1.56-2-.2-3.66-.39-4.69-.52q-.51,29.65-1,59.29H220.28l-2.6-55.13c-7.66,2.58-19.35,5-31.72,1a40.76,40.76,0,0,1-4.16-1.56c.17-3.81.35-7.62.52-11.44,1.74-16.23,4.12-29.78,6.24-40,3.19-15.44,5.55-22.36,10.92-29.12A43.8,43.8,0,0,1,215.08,857a41.2,41.2,0,0,1,17.68-3.64q-.51-5.46-1-10.92Z"/><path class="cls-6" d="M42.44,879.85l80.6-4.16a58.79,58.79,0,0,1,29.64,40,127,127,0,0,1,3.64,16.12,127.46,127.46,0,0,1,1.56,19.24q1.31,26.53,2.6,53l-159.13,2.6a515.51,515.51,0,0,1-1-55.13q.36-9.84,1-19.24a88.68,88.68,0,0,1,1.56-10.92,87.29,87.29,0,0,1,5.72-17.68,45.1,45.1,0,0,1,33.81-23.92Z"/><path class="cls-7" d="M48.16,817.45l35.36-28.08L108,806c.38,1.25,6.22,21.59-5.2,32.24A20.47,20.47,0,0,1,96,842.41a39.69,39.69,0,0,0,3.12,10.92c6.36,14.15,19.3,20.4,23.92,22.36a52,52,0,0,1-40.56,30.16q-8.69-5.15-17.68-10.92Q53,887.39,42.44,879.85c3.59-3.4,13.8-14,14.56-29.64a39.14,39.14,0,0,0-1-10.92,19.92,19.92,0,0,1-4.16-4.16C46.65,828.16,47.74,819.88,48.16,817.45Z"/><path class="cls-8" d="M33.08,931.33a27.33,27.33,0,0,0-3.64,6.24,27.89,27.89,0,0,0-2.08,12.48A51.76,51.76,0,0,0,32,969.82a121.55,121.55,0,0,1,.52,14,121.68,121.68,0,0,1-2.6,22.41h7.6c.39-4.21.65-8.74.72-13.57.07-5.6-.14-10.82-.52-15.6a38,38,0,0,0-1.56-8.32c-.77-2.51-1.38-3.53-2.08-5.72a32.89,32.89,0,0,1-1.56-9.89A71.14,71.14,0,0,1,32,940.69,69.8,69.8,0,0,1,33.08,931.33Z"/><path class="cls-8" d="M131.36,931.85a36.12,36.12,0,0,1,9.36,33.29,181.94,181.94,0,0,0,1.14,39.3h-5.25q-.2-11.73-.57-23.7-.22-7.34-.52-14.56a85,85,0,0,0,1-10.93c.05-1.8.05-3.54,0-5.2a68,68,0,0,0-1.56-7.8A68.89,68.89,0,0,0,131.36,931.85Z"/><path class="cls-9" d="M303.48,771.69a10.66,10.66,0,0,1-3.12-3.64c1.25-.59,13.79-6.73,14.05-16.64.1-4.3-2.11-8.56-8.93-14.75-13.62-12.39-24.78-13.55-38.92-20.61-10-5-29.86-14.93-34.32-30.68-6.29-22.22,20.39-46.86,26.52-52.53,33-30.45,76.9-30.47,93.09-29.64,13.85-2,46.38-4.71,79.56,13,14.85,7.93,45.7,24.43,48.88,54.09,2.86,26.6-18.2,50.85-36.4,62.4-31.25,19.83-47.46-2-88.92,18.72C334.62,761.57,313.91,779.12,303.48,771.69Z"/><path class="cls-10" d="M142.28,773.25c1.41.81,6.19-4.65,9.36-8.84,6.35-8.39,8.46-14.6,10.92-19.24,6.2-11.7,14.51-13.34,22.36-20.8,17.77-16.89,22.87-53,10.4-72.81-3-4.78-8.07-9.94-18.2-20.28-8.92-9.1-12.57-11.68-14.56-13-8.87-5.86-17.05-7.88-22.88-9.36a95.62,95.62,0,0,0-36.4-1.56c-13.59,2-22.64,6.1-37.44,13-24.63,11.5-37.55,16.35-43.16,26-4.19,7.19-4.7,14.5-5.72,29.13-1,14.35-1.76,25,4.68,34.84,6,9.12,15,12.83,19.24,14.56,12,4.92,17.28,1.56,44.72,2.6,14.2.54,23,1.82,31.72,4.16,17.41,4.66,21.39,10,22.88,12.48,4.25,7.2,3.69,17,3.64,17.68C143.38,768.4,141.1,772.57,142.28,773.25Z"/></g></g></svg>