<svg xmlns="http://www.w3.org/2000/svg" viewBox="0 0 347.3 292.7">
  <defs>
    <style>
      .cls-1 {
        fill: #ee6e4c;
      }

      .cls-2 {
        fill: #ae785b;
      }

      .cls-3 {
        fill: #492823;
      }

      .cls-4 {
        fill: #e4c94b;
      }

      .cls-5 {
        fill: #13606d;
      }

      .cls-6 {
        fill: #fbc0a5;
      }

      .cls-7 {
        fill: #0e4852;
      }

      .cls-8 {
        fill: #935287;
      }

      .cls-9 {
        fill: #f2ac2d;
      }
    </style>
  </defs>
  <g id="Layer_2" data-name="Layer 2">
    <g id="Layer_2-2" data-name="Layer 2">
      <g>
        <path class="cls-1" d="M26.9,125.1c.9-1.6,8.2-14.2,23.3-16.5a32.6,32.6,0,0,1,31.2,13.5,87,87,0,0,1,3,9.4,88.9,88.9,0,0,1,3,22.9,27.2,27.2,0,0,1,1.9,14.7,24.5,24.5,0,0,1-4.5,11.6c-3.1,4-6.7,5.1-24.8,9s-24.2,4.8-30.5,2.3c-3.4-1.4-5.8-2.4-7.5-4.9-4.9-7.4,4.8-15.1,3.4-31.2-.6-7.5-3-9.7-2.2-17.7A39,39,0,0,1,26.9,125.1Z"/>
        <path class="cls-2" d="M159.6,121.9c-.3,7.8-.2,14,0,18.2a86,86,0,0,0,.7,9.4c.4,2.8.8,5.1,1.2,6.8a9.7,9.7,0,0,0,3,4.5,10.5,10.5,0,0,0,4.5,2.3,6.6,6.6,0,0,1,3.4,3.3,6.1,6.1,0,0,1,.3,2.3,21,21,0,0,1-.3,5.3h26.7a27.8,27.8,0,0,1-2.7-7.9,26.4,26.4,0,0,1-.3-6.1c-2.1-12.7-4.1-25.5-6.1-38.3a82,82,0,0,0-20.6-1.1A68.5,68.5,0,0,0,159.6,121.9Z"/>
        <path class="cls-3" d="M196.1,160a28.8,28.8,0,0,0,11.6-10.9,29.1,29.1,0,0,0,3.8-18.4,29.5,29.5,0,0,0-5.7-12,28.3,28.3,0,0,0-12.8-9,45,45,0,0,0-8.6-3,57.7,57.7,0,0,0-6-1.2,15.6,15.6,0,0,0-8.7.8,13.9,13.9,0,0,0-3.7,2.3,6.7,6.7,0,0,1-1.5-3.4,7,7,0,0,1,.7-4.2l-2.6,3.8c-.7,1.2-1.4,2.3-1.9,3.4-.2-1-.5-2-.7-3a38.3,38.3,0,0,1-.8-4.2l-6,10.6a7.5,7.5,0,0,0,.4,7.1,7.3,7.3,0,0,0,7.5,3,33.1,33.1,0,0,1,10.5,0,31.2,31.2,0,0,1,7.9,2.3,9.3,9.3,0,0,1,4.5,4.1,10.5,10.5,0,0,1,.8,7.9l-1.2,7.9a26.5,26.5,0,0,0,3.1,7.5A22.8,22.8,0,0,0,196.1,160Z"/>
        <path class="cls-2" d="M134.4,252.9l.6,21.6.5,17.5h19.6V252.8Z"/>
        <path class="cls-2" d="M219.4,249.2l21.8-.6c.4,5.5.7,11.3.7,17.4.1,9.3-.4,18-1.1,26H225.7c-.6-5.9-1.3-11.9-2.2-18.1C222.3,265.4,220.9,257.1,219.4,249.2Z"/>
        <path class="cls-4" d="M172.4,174h33l-1.5,7.8a31.5,31.5,0,0,1,17.7,3.4,28.8,28.8,0,0,1,10.5,9.4c1.1,1.7,2.1,3.7,5.3,23.3.8,5.2,1.5,9.7,1.9,12.1.8,5.3,1.4,9.7,1.9,12.7,2.1,3.3,1.9,4.9,1.5,5.7-1.6,3-9.8,2.2-20.7,1.1l-3.4-.4c-.2,14.3-.5,28.6-.7,42.9H159.2l-1.9-39.9c-5.5,1.9-13.9,3.6-22.9.8l-3-1.1c.1-2.8.3-5.6.4-8.3,1.2-11.7,3-21.5,4.5-29,2.3-11.1,4-16.1,7.9-21a29.9,29.9,0,0,1,11.3-9,30.2,30.2,0,0,1,12.7-2.7c-.2-2.6-.5-5.2-.7-7.8Z"/>
        <path class="cls-5" d="M30.7,201l58.2-3a43.2,43.2,0,0,1,21.5,28.9,102.5,102.5,0,0,1,2.6,11.7,91.9,91.9,0,0,1,1.1,13.9c.6,12.8,1.3,25.6,1.9,38.3L1,292.7a368.3,368.3,0,0,1-.8-39.8c.2-4.8.4-9.4.8-13.9a62.1,62.1,0,0,1,1.1-7.9,66.6,66.6,0,0,1,4.1-12.8,34.1,34.1,0,0,1,11.3-12.4A32.8,32.8,0,0,1,30.7,201Z"/>
        <path class="cls-6" d="M34.8,155.9l25.6-20.3,17.6,12c.3.9,4.5,15.6-3.7,23.3a14.8,14.8,0,0,1-4.9,3.1,30,30,0,0,0,2.2,7.8c4.6,10.3,14,14.8,17.3,16.2a37.2,37.2,0,0,1-29.3,21.8l-12.8-7.9c-5.6-3.6-11-7.3-16.1-10.9,2.6-2.4,10-10.1,10.5-21.4a27.1,27.1,0,0,0-.8-7.9,16.9,16.9,0,0,1-3-3C33.7,163.7,34.5,157.7,34.8,155.9Z"/>
        <path class="cls-7" d="M23.9,238.2a18.4,18.4,0,0,0-2.6,4.5,20,20,0,0,0-1.5,9.1,30.9,30.9,0,0,0,1.1,7.8,31.2,31.2,0,0,0,2.3,6.4c.2,3.1.4,6.5.3,10.2a90.9,90.9,0,0,1-1.8,16.2h5.4c.3-3.1.5-6.3.6-9.8s-.1-7.8-.4-11.3a31.1,31.1,0,0,0-1.1-6c-.6-1.8-1-2.6-1.5-4.1a23.1,23.1,0,0,1-1.2-7.2,51.2,51.2,0,0,1-.3-9A62.1,62.1,0,0,1,23.9,238.2Z"/>
        <path class="cls-7" d="M94.9,238.6a25.8,25.8,0,0,1,6.1,9.8,26.6,26.6,0,0,1,.7,14.3c-.3,4.1-.5,8.6-.4,13.5s.6,10.4,1.2,14.9H98.7c-.1-5.7-.2-11.4-.4-17.2L98,263.4c.3-2.4.6-5,.7-7.9v-3.7a43.8,43.8,0,0,0-1.1-5.7A46,46,0,0,0,94.9,238.6Z"/>
        <path class="cls-8" d="M219.4,122.8a6.7,6.7,0,0,1-2.3-2.6c.9-.4,10-4.9,10.1-12,.1-3.1-1.5-6.2-6.4-10.7-9.9-8.9-17.9-9.8-28.1-14.9-7.3-3.6-21.6-10.8-24.8-22.2-4.6-16,14.7-33.8,19.1-37.9C210.9.5,242.6.5,254.3,1.1c10-1.5,33.5-3.5,57.5,9.4,10.8,5.7,33,17.6,35.3,39,2.1,19.3-13.1,36.8-26.3,45.1-22.5,14.4-34.3-1.4-64.2,13.6C241.9,115.5,226.9,128.2,219.4,122.8Z"/>
        <path class="cls-9" d="M102.8,124c1.1.6,4.5-3.4,6.8-6.4,4.6-6.1,6.1-10.6,7.9-13.9C122,95.2,128,94,133.7,88.6c12.8-12.2,16.5-38.3,7.5-52.6-2.2-3.4-5.9-7.2-13.2-14.6s-9.1-8.5-10.5-9.4c-6.4-4.3-12.3-5.7-16.5-6.8A67.4,67.4,0,0,0,74.6,4.1c-9.8,1.4-16.3,4.4-27,9.4C29.8,21.8,20.5,25.3,16.4,32.3c-3,5.2-3.4,10.4-4.1,21S11,71.4,15.6,78.5,26.5,87.8,29.5,89c8.7,3.6,12.5,1.1,32.4,1.9,10.2.4,16.6,1.3,22.9,3,12.6,3.4,15.5,7.2,16.5,9,3.1,5.2,2.7,12.3,2.7,12.8C103.6,120.5,102,123.5,102.8,124Z"/>
      </g>
    </g>
  </g>
</svg>
