<svg xmlns="http://www.w3.org/2000/svg" viewBox="0 0 1170 239.2">
	<defs>
		<style>
			.cls-1 {
				fill: #10b591;
			}

			.cls-2 {
				fill: #7bcab9;
				opacity: 0.25;
			}

			.cls-3 {
				font-size: 72px;
				font-family: SegoeUI-SemiboldItalic, Segoe UI;
				font-weight: 600;
				font-style: italic;
			}

			.cls-3,
			.cls-4 {
				fill: #007658;
			}

			g#bus path {
				animation-name: example;
				animation-duration: 6s;
			}

			@keyframes example {
				0%   {fill: red;}
				25%  {fill: yellow;}
				50%  {fill: blue;}
				100% {fill: green;}
			}
		</style>
	</defs>
	<g id="Background">
		<rect class="cls-1" y="224.5" width="1170" height="14.67" />
		<g>
			<rect class="cls-2" width="1170" height="219.25" />
			<text class="cls-3" transform="translate(425.6 138.2)">TRANSIT</text>
		</g>
	</g>
	<g id="items">
		<g>
			<circle class="cls-1" cx="924.4" cy="200.1" r="4.9" />
			<path class="cls-1"
				d="M934.6,191.9a13.6,13.6,0,0,0-10.6-5.6,13.3,13.3,0,0,0-10.6,5.6c-2.7,3.8-2.3,7.9-2.2,10.1a20.8,20.8,0,0,0,2.5,8.1A89.5,89.5,0,0,0,924,226.4a89,89,0,0,0,10.2-16.3,19.3,19.3,0,0,0,2.5-8.2A14.6,14.6,0,0,0,934.6,191.9ZM924,208.5a8.5,8.5,0,0,1-8.4-8.4,8.4,8.4,0,0,1,8.4-8.3,8.3,8.3,0,0,1,8.3,8.3A8.4,8.4,0,0,1,924,208.5Z"
				transform="translate(0.4 0)" />
		</g>
		<g id="bus">
			<path class="cls-4"
				d="M344.3,219.9a1.2,1.2,0,0,0-1.2,1.2,1.3,1.3,0,0,0,1.2,1.2,1.2,1.2,0,0,0,1.2-1.2A1.2,1.2,0,0,0,344.3,219.9Z"
				transform="translate(0.4 0)" />
			<path class="cls-4"
				d="M355.6,211.4c-.1-.8-1.5-6-1.5-6-1-4.3-2.2-8.2-3.3-8.2H281.7c-2.3,0-3,11.5-3,12.7v9.9a2.2,2.2,0,0,0,2.1,2.1h4.9v-.8a5.8,5.8,0,1,1,11.6,0,2.5,2.5,0,0,1-.1.8h41.4a2.5,2.5,0,0,1-.1-.8,5.8,5.8,0,0,1,11.6,0v.8h3.4a2.1,2.1,0,0,0,2.1-2.1S355.8,212.3,355.6,211.4Zm-60-1.7a1,1,0,0,1-1,.9H282.5a.9.9,0,0,1-.9-.9l1.1-8.6a1,1,0,0,1,1-.9h10.9a1,1,0,0,1,1,.9Zm15.3.1a.8.8,0,0,1-.9.8H298.4a.8.8,0,0,1-.9-.8V201a.8.8,0,0,1,.9-.8H310a.8.8,0,0,1,.9.8Zm15.3,0a.8.8,0,0,1-.9.8H313.7a.7.7,0,0,1-.8-.8V201a.7.7,0,0,1,.8-.8h11.6a.8.8,0,0,1,.9.8Zm10.7,7.6a1.3,1.3,0,0,1-1.2,1.4h-6.3a1.3,1.3,0,0,1-1.2-1.4V201.5a1.2,1.2,0,0,1,1.2-1.3h6.3a1.3,1.3,0,0,1,1.2,1.3Zm14.7-6.8H339.8a.9.9,0,0,1-.9-.8V201a.9.9,0,0,1,.9-.8h9.6a1,1,0,0,1,.9.7l2.3,8.5A1.1,1.1,0,0,1,351.6,210.6Z"
				transform="translate(0.4 0)" />
			<path class="cls-4"
				d="M291.5,219.9a1.2,1.2,0,0,0-1.2,1.2,1.2,1.2,0,0,0,1.2,1.2,1.3,1.3,0,0,0,1.2-1.2A1.2,1.2,0,0,0,291.5,219.9Z"
				transform="translate(0.4 0)" />
			<path class="cls-4"
				d="M291.5,216.5a4.6,4.6,0,1,0,4.5,4.6A4.6,4.6,0,0,0,291.5,216.5Zm0,6.6a2,2,0,1,1,0-4,2,2,0,0,1,0,4Z"
				transform="translate(0.4 0)" />
			<path class="cls-4"
				d="M344.3,219.9a1.2,1.2,0,0,0-1.2,1.2,1.3,1.3,0,0,0,1.2,1.2,1.2,1.2,0,0,0,1.2-1.2A1.2,1.2,0,0,0,344.3,219.9Z"
				transform="translate(0.4 0)" />
			<path class="cls-4"
				d="M344.3,216.5a4.6,4.6,0,1,0,4.6,4.6A4.7,4.7,0,0,0,344.3,216.5Zm0,6.6a2,2,0,1,1,2-2A2,2,0,0,1,344.3,223.1Z"
				transform="translate(0.4 0)" />
		</g>
	</g>
</svg>