<svg xmlns="http://www.w3.org/2000/svg" viewBox="0 0 290.4 167.8">
  <defs>
    <style>
      .cls-1 {
        fill: #c86480;
      }

      .cls-2 {
        fill: #f2ac2d;
      }

      .cls-3 {
        fill: #809b3c;
      }

      .cls-4 {
        fill: #a0b2db;
      }

      .cls-5 {
        fill: #e4e984;
      }

      .cls-6 {
        fill: #a7a9ac;
      }

      .cls-7 {
        font-size: 9px;
        fill: #231f20;
        font-family: SegoeUI-Italic, Segoe UI;
        font-style: italic;
      }

      .cls-8 {
        letter-spacing: -0.01em;
      }

      .cls-9 {
        letter-spacing: 0em;
      }

      .cls-10 {
        letter-spacing: 0em;
      }

      .cls-11 {
        letter-spacing: 0em;
      }

      .cls-12 {
        letter-spacing: -0.01em;
      }

      .cls-13 {
        letter-spacing: -0.01em;
      }

      .cls-14 {
        letter-spacing: -0.02em;
      }

      .cls-15 {
        letter-spacing: 0em;
      }
    </style>
  </defs>
  <g id="Layer_2" data-name="Layer 2">
    <g id="Layer_1-2" data-name="Layer 1">
      <g>
        <g>
          <g>
            <rect class="cls-1" x="189.5" y="11.5" width="27.8" height="20.7"/>
            <path class="cls-1" d="M83.9,83.9,65,165.7A83.9,83.9,0,0,1,83.9,0Z"/>
          </g>
          <g>
            <rect class="cls-2" x="189.5" y="38.5" width="27.8" height="20.7"/>
            <path class="cls-2" d="M83.9,83.9l4.4,83.8a79.7,79.7,0,0,1-23.3-2Z"/>
          </g>
          <g>
            <rect class="cls-3" x="189.5" y="65.6" width="27.8" height="20.7"/>
            <path class="cls-3" d="M83.9,83.9l75.4,36.8c-13.7,28.1-39.7,45.4-71,47Z"/>
          </g>
          <g>
            <rect class="cls-4" x="189.5" y="91.6" width="27.8" height="20.7"/>
            <path class="cls-4" d="M83.9,83.9,165.7,65a80.8,80.8,0,0,1-6.4,55.7Z"/>
          </g>
          <g>
            <rect class="cls-5" x="189.5" y="117.7" width="27.8" height="20.7"/>
            <path class="cls-5" d="M83.9,83.9l51.7-66.1A81.3,81.3,0,0,1,165.7,65Z"/>
          </g>
          <g>
            <rect class="cls-6" x="189.5" y="143.7" width="27.8" height="20.7"/>
            <path class="cls-6" d="M83.9,83.9V0c19.9,0,36,5.5,51.7,17.8Z"/>
          </g>
        </g>
        <g>
          <text class="cls-7" transform="translate(223.3 26.4)">Inf<tspan class="cls-8" x="10.1" y="0">r</tspan><tspan class="cls-9" x="13.2" y="0">ast</tspan><tspan class="cls-10" x="24.6" y="0">r</tspan><tspan x="27.8" y="0">uctu</tspan><tspan class="cls-10" x="44.7" y="0">r</tspan><tspan x="47.9" y="0">e</tspan></text>
          <text class="cls-7" transform="translate(223.3 53.5)">A<tspan class="cls-11" x="5.7" y="0">D</tspan><tspan x="12.1" y="0">A A</tspan><tspan class="cls-12" x="26" y="0">cc</tspan><tspan x="33.6" y="0">essibility</tspan></text>
          <text class="cls-7" transform="translate(223.3 79.5)">Safety</text>
          <text class="cls-7" transform="translate(223.3 100.6)">Multimodal <tspan x="0" y="9">In</tspan><tspan class="cls-10" x="7.5" y="9">t</tspan><tspan x="10.4" y="9">eg</tspan><tspan class="cls-13" x="19.6" y="9">r</tspan><tspan x="22.8" y="9">ation</tspan></text>
          <text class="cls-7" transform="translate(223.3 127.6)">Public <tspan class="cls-14"><tspan x="0" y="8">A</tspan><tspan class="cls-9" x="5.5" y="8">wa</tspan><tspan class="cls-10" x="16.9" y="8">r</tspan><tspan class="cls-15" x="20.1" y="8">eness</tspan></tspan></text>
          <text class="cls-7" transform="translate(223.3 157.7)">Other</text>
        </g>
      </g>
    </g>
  </g>
</svg>
