<svg xmlns="http://www.w3.org/2000/svg" viewBox="0 0 112.6 100.8">
  <defs>
    <style>
      .cls-1, .cls-2 {
        fill: #16b795;
      }

      .cls-2 {
        stroke: #fff;
        stroke-miterlimit: 10;
        stroke-width: 0.75px;
      }
    </style>
  </defs>
  <g id="Layer_2" data-name="Layer 2">
    <g id="Layer_1-2" data-name="Layer 1">
      <g>
        <path class="cls-1" d="M90,39.4a6,6,0,0,0-6-6H72.1c-3.3,0-8.7.3-12,.6L47.5,35.4a31.1,31.1,0,0,0-11.1,3.8l-4.6,2.9a12.2,12.2,0,0,0-5.1,9.2V83.2a10.6,10.6,0,0,0,5.4,8.7l8.1,4a32.1,32.1,0,0,0,11.4,2.6H88.1c1.1,0,2-2.7,2-6Z"/>
        <rect class="cls-2" x="65.8" y="29.3" width="39.9" height="17.35" rx="8.7"/>
        <rect class="cls-1" y="38.1" width="35.5" height="61.46" rx="9.6"/>
        <rect class="cls-2" x="65.8" y="47.2" width="46.4" height="17.35" rx="8.7"/>
        <rect class="cls-2" x="65.8" y="65.2" width="39.9" height="17.35" rx="8.7"/>
        <rect class="cls-2" x="65.8" y="83.1" width="32.8" height="17.35" rx="8.7"/>
        <path class="cls-1" d="M59.7,9.1a115.7,115.7,0,0,1,.6,12.4,87.3,87.3,0,0,1-.9,10.9L56.7,42.9,52.6,58.5c-1.3,5.1-7.3,8.3-13.3,7.2s-8.7-5-8.7-9.3a7.6,7.6,0,0,1,.3-2.1l6.5-21.8a58.6,58.6,0,0,0,1.3-9.1,73.2,73.2,0,0,0-.3-14.3C38.4,4.1,43.2,0,49,0a11.5,11.5,0,0,1,7.6,2.7A8.4,8.4,0,0,1,59.7,9.1Z"/>
      </g>
    </g>
  </g>
</svg>
