<svg xmlns="http://www.w3.org/2000/svg" viewBox="0 0 75.1 89.5">
  <defs>
    <style>
      .cls-1 {
        fill: none;
        stroke: #a0b2db;
        stroke-miterlimit: 10;
        stroke-width: 4px;
      }

      .cls-2 {
        fill: #a0b2db;
      }
    </style>
  </defs>
  <g id="Layer_2" data-name="Layer 2">
    <g id="Layer_1-2" data-name="Layer 1">
      <g>
        <rect class="cls-1" x="2" y="2" width="71.1" height="85.49" rx="2"/>
        <g>
          <rect class="cls-2" x="12.1" y="11" width="2.1" height="68.52"/>
          <rect class="cls-2" x="30.5" y="14.9" width="3.8" height="17.58" transform="translate(37.2 63.6) rotate(-132.9)"/>
          <rect class="cls-2" x="40.9" y="14.9" width="3.8" height="17.58" transform="translate(-3.7 38.9) rotate(-47.1)"/>
          <rect class="cls-2" x="30.3" y="24.1" width="3.8" height="17.58" transform="translate(30 78.9) rotate(-132.9)"/>
          <rect class="cls-2" x="40.7" y="24.1" width="3.8" height="17.58" transform="translate(-10.5 41.7) rotate(-47.1)"/>
          <rect class="cls-2" x="61" y="11" width="2.1" height="68.52"/>
          <g>
            <path class="cls-2" d="M26.1,72.6A8,8,0,1,1,34,64.7,7.9,7.9,0,0,1,26.1,72.6Zm0-14.4a6.5,6.5,0,1,0,6.5,6.5h0a6.6,6.6,0,0,0-6.5-6.5Z"/>
            <path class="cls-2" d="M48.6,72.6a8,8,0,1,1,8-7.9A8,8,0,0,1,48.6,72.6Zm0-14.4a6.5,6.5,0,1,0,6.5,6.5h0a6.5,6.5,0,0,0-6.5-6.5Z"/>
            <path class="cls-2" d="M48.6,65.4a.8.8,0,0,1-.7-.5l-4.2-14a.7.7,0,1,1,1.4-.4h.1l4.2,13.9a.8.8,0,0,1-.5,1Z"/>
            <path class="cls-2" d="M46.6,56.3c.1.3-.1.6-.5.7L32.7,61.7l-6.4,3.6a.7.7,0,0,1-1-.3.8.8,0,0,1,.2-1h.1l5.8-3.3.7-.3,7.4-2.7,6.2-2.1a.6.6,0,0,1,.9.4Z"/>
            <path class="cls-2" d="M42,51.8a.7.7,0,0,1-.7-.7.7.7,0,0,1,.6-.7l2.4-.4a.8.8,0,0,1,.9.6.6.6,0,0,1-.6.8h0l-2.5.3Z"/>
          </g>
        </g>
      </g>
    </g>
  </g>
</svg>
