<svg xmlns="http://www.w3.org/2000/svg" viewBox="0 0 97.8 72.2">
  <defs>
    <style>
      .cls-1 {
        fill: #fff;
      }

      .cls-2, .cls-4 {
        fill: none;
        stroke: #f2764f;
        stroke-miterlimit: 10;
      }

      .cls-2 {
        stroke-width: 4px;
      }

      .cls-3 {
        fill: #f2764f;
      }

      .cls-4 {
        stroke-width: 3px;
      }
    </style>
  </defs>
  <g id="Layer_2" data-name="Layer 2">
    <g id="Layer_1-2" data-name="Layer 1">
      <g>
        <g>
          <path class="cls-1" d="M5,4.3A3.3,3.3,0,0,0,2,7.6V67.5a2.6,2.6,0,0,0,3,2.7,212.4,212.4,0,0,1,21.7-1.5c9.8,0,22.2,1.5,22.2,1.5a2.6,2.6,0,0,0,3-2.7V20.1a6.8,6.8,0,0,0-2.4-4.7A72.9,72.9,0,0,0,27.6,5.8,75.6,75.6,0,0,0,5,4.3Z"/>
          <path class="cls-2" d="M5,4.3A3.3,3.3,0,0,0,2,7.6V67.5a2.6,2.6,0,0,0,3,2.7,212.4,212.4,0,0,1,21.7-1.5c9.8,0,22.2,1.5,22.2,1.5a2.6,2.6,0,0,0,3-2.7V20.1a6.8,6.8,0,0,0-2.4-4.7A72.9,72.9,0,0,0,27.6,5.8,75.6,75.6,0,0,0,5,4.3Z"/>
        </g>
        <g>
          <path class="cls-1" d="M92.8,4.3a3.3,3.3,0,0,1,3,3.3V67.5a2.6,2.6,0,0,1-3,2.7,212.4,212.4,0,0,0-21.7-1.5c-9.8,0-22.2,1.5-22.2,1.5a2.6,2.6,0,0,1-3-2.7V20.1a6.8,6.8,0,0,1,2.4-4.7A72.9,72.9,0,0,1,70.2,5.8,75.6,75.6,0,0,1,92.8,4.3Z"/>
          <path class="cls-2" d="M92.8,4.3a3.3,3.3,0,0,1,3,3.3V67.5a2.6,2.6,0,0,1-3,2.7,212.4,212.4,0,0,0-21.7-1.5c-9.8,0-22.2,1.5-22.2,1.5a2.6,2.6,0,0,1-3-2.7V20.1a6.8,6.8,0,0,1,2.4-4.7A72.9,72.9,0,0,1,70.2,5.8,75.6,75.6,0,0,1,92.8,4.3Z"/>
        </g>
        <g>
          <rect class="cls-3" x="45.6" y="12.8" width="6.3" height="57.78" rx="2"/>
          <rect class="cls-4" x="45.6" y="12.8" width="6.3" height="57.78" rx="2"/>
        </g>
        <g>
          <path class="cls-1" d="M88,1.7a3.5,3.5,0,0,1,3,3.4V62.7a2.5,2.5,0,0,1-3,2.5,143.6,143.6,0,0,0-16.9-1.3,128.9,128.9,0,0,0-17.4,1.3,2.5,2.5,0,0,1-3-2.5V17.2A6.9,6.9,0,0,1,53,12.3,51.9,51.9,0,0,1,70.3,3.2,52,52,0,0,1,88,1.7Z"/>
          <path class="cls-4" d="M88,1.7a3.5,3.5,0,0,1,3,3.4V62.7a2.5,2.5,0,0,1-3,2.5,143.6,143.6,0,0,0-16.9-1.3,128.9,128.9,0,0,0-17.4,1.3,2.5,2.5,0,0,1-3-2.5V17.2A6.9,6.9,0,0,1,53,12.3,51.9,51.9,0,0,1,70.3,3.2,52,52,0,0,1,88,1.7Z"/>
        </g>
        <g>
          <path class="cls-1" d="M9.8,1.7a3.5,3.5,0,0,0-3,3.4V62.7a2.5,2.5,0,0,0,3,2.5,143.6,143.6,0,0,1,16.9-1.3,128.9,128.9,0,0,1,17.4,1.3,2.5,2.5,0,0,0,3-2.5V17.2a6.9,6.9,0,0,0-2.3-4.9A51.9,51.9,0,0,0,27.5,3.2,52,52,0,0,0,9.8,1.7Z"/>
          <path class="cls-4" d="M9.8,1.7a3.5,3.5,0,0,0-3,3.4V62.7a2.5,2.5,0,0,0,3,2.5,143.6,143.6,0,0,1,16.9-1.3,128.9,128.9,0,0,1,17.4,1.3,2.5,2.5,0,0,0,3-2.5V17.2a6.9,6.9,0,0,0-2.3-4.9A51.9,51.9,0,0,0,27.5,3.2,52,52,0,0,0,9.8,1.7Z"/>
        </g>
      </g>
    </g>
  </g>
</svg>
