<svg xmlns="http://www.w3.org/2000/svg" viewBox="0 0 98.9 79.6">
  <defs>
    <style>
      .cls-1, .cls-2, .cls-4 {
        fill: none;
      }

      .cls-1, .cls-2, .cls-3, .cls-4 {
        stroke: #e4e984;
        stroke-miterlimit: 10;
      }

      .cls-1 {
        stroke-width: 3px;
      }

      .cls-2 {
        stroke-linecap: round;
      }

      .cls-2, .cls-3 {
        stroke-width: 4px;
      }

      .cls-3 {
        fill: #fff;
      }

      .cls-4 {
        stroke-width: 2px;
      }
    </style>
  </defs>
  <g id="Layer_2" data-name="Layer 2">
    <g id="Layer_1-2" data-name="Layer 1">
      <g>
        <path class="cls-1" d="M19.3,23.3c-.2,4.3-4,7.8-8.9,7.8s-8.9-3.5-8.9-7.8C1.5,23.1,19.3,23.2,19.3,23.3Z"/>
        <line class="cls-2" x1="10" y1="2" x2="90.2" y2="25"/>
        <path class="cls-3" d="M78.8,73.1v1.1a3.3,3.3,0,0,1-3.1,3.4H23a3.3,3.3,0,0,1-3.1-3.4V73.1A3.3,3.3,0,0,1,23,69.6H34.9c1.8-.3,1.8-2.3,1.8-3.8A5.8,5.8,0,0,1,42.5,60V13.6c0-4.2,3.1-7.5,6.8-7.5a6.6,6.6,0,0,1,4.9,2.2,7.9,7.9,0,0,1,2,5.3V60a5.8,5.8,0,0,1,5.7,5.8c.1,1.6-.7,3.3,1,3.8H75.7A3.3,3.3,0,0,1,78.8,73.1Z"/>
        <line class="cls-4" x1="10" y1="2.9" x2="3.2" y2="24.2"/>
        <line class="cls-4" x1="10.6" y1="2.9" x2="17.4" y2="24.2"/>
        <path class="cls-1" d="M97.4,44.9a8.6,8.6,0,0,1-8.9,7.8c-4.9,0-8.9-3.5-8.9-7.8C79.6,44.7,97.4,44.8,97.4,44.9Z"/>
        <line class="cls-4" x1="88.1" y1="24.5" x2="81.3" y2="45.8"/>
        <line class="cls-4" x1="88.7" y1="24.5" x2="95.5" y2="45.8"/>
      </g>
    </g>
  </g>
</svg>
