<svg xmlns="http://www.w3.org/2000/svg" viewBox="0 0 77.4 89.4">
  <defs>
    <style>
      .cls-1, .cls-2, .cls-4 {
        fill: none;
        stroke: #e4c94b;
        stroke-miterlimit: 10;
      }

      .cls-1 {
        stroke-width: 4px;
      }

      .cls-2 {
        stroke-linecap: round;
        stroke-width: 2px;
      }

      .cls-3 {
        fill: #e4c94b;
      }
    </style>
  </defs>
  <g id="Layer_2" data-name="Layer 2">
    <g id="Layer_1-2" data-name="Layer 1">
      <g>
        <g>
          <g>
            <path class="cls-1" d="M23.7,54.3a27.9,27.9,0,0,0-2.8-4.2c-.1-.1-.2-.3-.4-.4a21,21,0,0,1-4-12.3c0-11.7,10-21.2,22.3-21.2s22.4,9.5,22.4,21.2a19.9,19.9,0,0,1-4.1,12.2l-.7.9"/>
            <path class="cls-1" d="M56.6,50.3a32.9,32.9,0,0,0-5.3,9.4,25.2,25.2,0,0,0-1.4,5.7,4.2,4.2,0,0,1-4.1,4H32M20.9,50.3a28.8,28.8,0,0,1,5.3,9.4,19.5,19.5,0,0,1,1.4,5.7,4.3,4.3,0,0,0,4.2,4H45.6"/>
          </g>
          <line class="cls-2" x1="47.4" y1="73.1" x2="30.2" y2="74.7"/>
          <line class="cls-2" x1="47.4" y1="76.1" x2="30.2" y2="77.7"/>
          <line class="cls-2" x1="47.4" y1="79.2" x2="30.2" y2="80.7"/>
          <line class="cls-2" x1="47.4" y1="82.2" x2="30.2" y2="83.7"/>
          <path class="cls-3" d="M32.4,86.5c-.2-.5,0-1,.6-1l12.4-1c.6-.1.9.3.7.8l-1.2,3.1a1.7,1.7,0,0,1-1.3,1H34.7a1.8,1.8,0,0,1-1.4-1Z"/>
          <path class="cls-4" d="M53.2,31.2a15.5,15.5,0,0,0-8.9-8.1l-.5,2a15.3,15.3,0,0,1,7.5,6.7Z"/>
        </g>
        <line class="cls-2" x1="39" y1="1" x2="39" y2="9.3"/>
        <line class="cls-2" x1="76.4" y1="38.8" x2="68.1" y2="38.8"/>
        <line class="cls-2" x1="9.3" y1="38.8" x2="1" y2="38.8"/>
        <line class="cls-2" x1="16.8" y1="19.7" x2="10.9" y2="13.8"/>
        <line class="cls-2" x1="60.1" y1="18.9" x2="66" y2="13"/>
        <line class="cls-2" x1="61.9" y1="56.9" x2="67.8" y2="62.8"/>
        <line class="cls-2" x1="15.9" y1="56.6" x2="10" y2="62.5"/>
      </g>
    </g>
  </g>
</svg>
