<svg xmlns="http://www.w3.org/2000/svg" viewBox="0 0 84.9 75.1">
  <defs>
    <style>
      .cls-1 {
        fill: #fff;
      }

      .cls-2 {
        fill: none;
        stroke: #c86480;
        stroke-miterlimit: 10;
        stroke-width: 6px;
      }

      .cls-3 {
        fill: #c86480;
      }
    </style>
  </defs>
  <g id="Layer_2" data-name="Layer 2">
    <g id="Layer_1-2" data-name="Layer 1">
      <g>
        <g>
          <path class="cls-1" d="M44.9,4.8c-1.3-2.4-3.6-2.4-5,0L3.6,67.8c-1.4,2.3-.3,4.3,2.5,4.3H78.8c2.7,0,3.9-2,2.5-4.3Z"/>
          <path class="cls-2" d="M44.9,4.8c-1.3-2.4-3.6-2.4-5,0L3.6,67.8c-1.4,2.3-.3,4.3,2.5,4.3H78.8c2.7,0,3.9-2,2.5-4.3Z"/>
        </g>
        <circle class="cls-3" cx="42.8" cy="61.8" r="3.8"/>
        <path class="cls-3" d="M47.3,24.9v1.6L46,50.1v.8c-.2,2.2-1.3,3.8-2.7,3.8H42.2c-1.5,0-2.7-2.1-2.8-4.6L37.6,26.3v-1a5.4,5.4,0,0,1,.7-3.2,2.4,2.4,0,0,1,1.9-1.3h4.4c1.4,0,2.6,1.8,2.7,4Z"/>
      </g>
    </g>
  </g>
</svg>
