<svg xmlns="http://www.w3.org/2000/svg" viewBox="0 0 90.4 85.9">
  <defs>
    <style>
      .cls-1 {
        fill: #f2ac2d;
      }

      .cls-2 {
        fill: #fff;
      }

      .cls-3 {
        fill: none;
        stroke: #f2ac2d;
        stroke-miterlimit: 10;
        stroke-width: 4px;
      }
    </style>
  </defs>
  <g id="Layer_2" data-name="Layer 2">
    <g id="Layer_1-2" data-name="Layer 1">
      <g>
        <rect class="cls-1" x="34" width="11.3" height="85.91" rx="1"/>
        <g>
          <path class="cls-2" d="M64.3,39.5a1.1,1.1,0,0,1,1,1V56.3a1,1,0,0,1-1,1H12a2.9,2.9,0,0,1-1.8-.7L2.3,49.1a1,1,0,0,1,0-1.4l7.9-7.5a2.9,2.9,0,0,1,1.8-.7Z"/>
          <path class="cls-3" d="M64.3,39.5a1.1,1.1,0,0,1,1,1V56.3a1,1,0,0,1-1,1H12a2.9,2.9,0,0,1-1.8-.7L2.3,49.1a1,1,0,0,1,0-1.4l7.9-7.5a2.9,2.9,0,0,1,1.8-.7Z"/>
        </g>
        <g>
          <path class="cls-2" d="M75.4,30.9a2.8,2.8,0,0,0,1.7-.7l11-10.9a1,1,0,0,0,0-1.4L77.1,7a2.8,2.8,0,0,0-1.7-.7H8.8a1,1,0,0,0-1,1V29.9a1,1,0,0,0,1,1Z"/>
          <path class="cls-3" d="M75.4,30.9a2.8,2.8,0,0,0,1.7-.7l11-10.9a1,1,0,0,0,0-1.4L77.1,7a2.8,2.8,0,0,0-1.7-.7H8.8a1,1,0,0,0-1,1V29.9a1,1,0,0,0,1,1Z"/>
        </g>
      </g>
    </g>
  </g>
</svg>
